<svg width="22" height="22" fill="none" viewBox="0 0 24 24" data-testid="appleIcon" >
<path fill="#fff" fill-rule="evenodd" d="M14.605 5.922c.61-.758 1.074-1.829.906-2.922-.998.067-2.165.68-2.846 1.48-.621.726-1.131 1.804-.932 2.85 1.092.034 2.218-.595 2.872-1.408zM20 16.206c-.437.936-.647 1.354-1.21 2.183-.785 1.157-1.892 2.597-3.264 2.608-1.219.012-1.533-.768-3.188-.758-1.654.008-1.999.773-3.22.76-1.371-.01-2.42-1.31-3.205-2.467-2.196-3.233-2.427-7.027-1.073-9.045.964-1.433 2.483-2.271 3.91-2.271 1.454 0 2.368.77 3.571.77 1.167 0 1.878-.773 3.558-.773 1.272 0 2.62.67 3.58 1.826-3.145 1.666-2.636 6.006.541 7.167z" clip-rule="evenodd">
</path>
</svg>
