<svg width="50" height="70" viewBox="0 0 71 100" fill="none" xmlns="http://www.w3.org/2000/svg">
<path d="M60.0273 27.9963V9.06628H47.6803V27.9963C47.6803 30.1822 46.6004 32.2177 44.815 33.3969C39.9188 36.631 36.9571 42.2132 36.9571 48.2079V93.1602C36.9571 96.9377 39.9274 99.9998 43.5915 99.9998H64.1158C67.7799 99.9998 70.7502 96.9377 70.7502 93.1602V48.208C70.7502 42.2131 67.7886 36.631 62.8922 33.3971C61.1072 32.2179 60.0273 30.1824 60.0273 27.9963V27.9963Z" fill="url(#paint0_linear_14_1462)"/>
<path d="M60.0273 27.9963V9.06628H47.6803V27.9963C47.6803 30.1822 46.6004 32.2177 44.815 33.3969C39.9188 36.631 36.9571 42.2132 36.9571 48.2079V93.1602C36.9571 96.9377 39.9274 99.9998 43.5915 99.9998H64.1158C67.7799 99.9998 70.7502 96.9377 70.7502 93.1602V48.208C70.7502 42.2131 67.7886 36.631 62.8922 33.3971C61.1072 32.2179 60.0273 30.1824 60.0273 27.9963V27.9963Z" fill="url(#paint1_linear_14_1462)"/>
<path d="M60.0273 27.9963V9.06628H47.6803V27.9963C47.6803 30.1822 46.6004 32.2177 44.815 33.3969C39.9188 36.631 36.9571 42.2132 36.9571 48.2079V93.1602C36.9571 96.9377 39.9274 99.9998 43.5915 99.9998H64.1158C67.7799 99.9998 70.7502 96.9377 70.7502 93.1602V48.208C70.7502 42.2131 67.7886 36.631 62.8922 33.3971C61.1072 32.2179 60.0273 30.1824 60.0273 27.9963V27.9963Z" fill="url(#paint2_linear_14_1462)"/>
<path d="M62.8926 33.3971C61.1072 32.2179 60.0273 30.1824 60.0273 27.9965V9.06628H53.5357V100H64.1161C67.7802 100 70.7505 96.9379 70.7505 93.1604V48.208C70.7505 42.2131 67.7888 36.631 62.8926 33.3971Z" fill="url(#paint3_linear_14_1462)"/>
<path d="M47.6805 9.06628V27.9963C47.6805 28.8275 47.5234 29.6367 47.2319 30.3855H60.4762C60.1844 29.6365 60.0275 28.8275 60.0275 27.9963V9.06628H47.6805Z" fill="url(#paint4_linear_14_1462)"/>
<path d="M59.7046 15.9011H48.0033C46.9089 15.9011 46.0219 14.9866 46.0219 13.8584V12.5561C46.0219 11.4278 46.9089 10.5133 48.0033 10.5133H59.7046C60.7989 10.5133 61.686 11.4278 61.686 12.5561V13.8584C61.686 14.9866 60.7989 15.9011 59.7046 15.9011Z" fill="url(#paint5_linear_14_1462)"/>
<path d="M59.7046 10.5135H48.0033C46.9089 10.5135 46.0219 9.59894 46.0219 8.47071V7.16835C46.0219 6.04012 46.9089 5.12561 48.0033 5.12561H59.7046C60.7989 5.12561 61.686 6.04012 61.686 7.16835V8.47071C61.686 9.59875 60.7989 10.5135 59.7046 10.5135Z" fill="url(#paint6_linear_14_1462)"/>
<path d="M59.7046 10.5135H48.0033C46.9089 10.5135 46.0219 9.59894 46.0219 8.47071V7.16835C46.0219 6.04012 46.9089 5.12561 48.0033 5.12561H59.7046C60.7989 5.12561 61.686 6.04012 61.686 7.16835V8.47071C61.686 9.59875 60.7989 10.5135 59.7046 10.5135Z" fill="url(#paint7_linear_14_1462)"/>
<path d="M36.9573 83.6625V93.1603C36.9573 96.9378 39.9276 99.9999 43.5917 99.9999H64.1159C67.7801 99.9999 70.7504 96.9378 70.7504 93.1603V83.6625H36.9573Z" fill="url(#paint8_linear_14_1462)"/>
<path d="M63.3369 84.8435H44.3711C43.0706 84.8435 42.0163 83.7566 42.0163 82.4159V57.549C42.0163 56.2082 43.0706 55.1213 44.3711 55.1213H63.3369C64.6375 55.1213 65.6917 56.2082 65.6917 57.549V82.4159C65.6917 83.7566 64.6373 84.8435 63.3369 84.8435V84.8435Z" fill="url(#paint9_linear_14_1462)"/>
<path d="M63.3369 84.8435H44.3711C43.0706 84.8435 42.0163 83.7566 42.0163 82.4159V57.549C42.0163 56.2082 43.0706 55.1213 44.3711 55.1213H63.3369C64.6375 55.1213 65.6917 56.2082 65.6917 57.549V82.4159C65.6917 83.7566 64.6373 84.8435 63.3369 84.8435V84.8435Z" fill="url(#paint10_linear_14_1462)"/>
<path d="M53.8539 60.1079C56.9119 60.1079 59.3909 57.5522 59.3909 54.3996C59.3909 51.2471 56.9119 48.6914 53.8539 48.6914C50.7959 48.6914 48.317 51.2471 48.317 54.3996C48.317 57.5522 50.7959 60.1079 53.8539 60.1079Z" fill="url(#paint11_linear_14_1462)"/>
<path d="M65.9302 73.2958H41.7776C40.8023 73.2958 40.0115 72.4808 40.0115 71.4751V66.0621C40.0115 65.0566 40.8021 64.2413 41.7776 64.2413H65.9304C66.9058 64.2413 67.6966 65.0564 67.6966 66.0621V71.4751C67.6964 72.4808 66.9058 73.2958 65.9302 73.2958Z" fill="url(#paint12_linear_14_1462)"/>
<path d="M63.5766 70.8589H44.1313C43.0116 70.8589 42.1038 69.9232 42.1038 68.7687C42.1038 67.6143 43.0116 66.6785 44.1313 66.6785H63.5768C64.6967 66.6785 65.6043 67.6143 65.6043 68.7687C65.6041 69.9232 64.6965 70.8589 63.5766 70.8589Z" fill="white"/>
<path d="M59.9115 82.0149H47.7962C46.6765 82.0149 45.7687 81.0792 45.7687 79.9247C45.7687 78.7704 46.6765 77.8345 47.7962 77.8345H59.9115C61.0313 77.8345 61.939 78.7704 61.939 79.9247C61.939 81.0792 61.0313 82.0149 59.9115 82.0149Z" fill="white"/>
<path d="M63.2821 8.05566C63.2821 8.28331 63.1945 8.50174 63.0381 8.66272C62.2146 9.51174 60.8794 9.51174 60.056 8.66272L59.1922 7.77213C58.3688 6.92331 57.0332 6.92331 56.2101 7.77213L55.3441 8.66272C54.5207 9.51154 53.1873 9.51154 52.3639 8.66272L51.498 7.77213C50.6746 6.92331 49.339 6.92331 48.5159 7.77213L47.652 8.66272C46.8285 9.51174 45.4933 9.51174 44.6699 8.66272C44.5138 8.50174 44.4259 8.28331 44.4259 8.05566C44.4259 5.66409 46.3066 3.72546 48.6262 3.72546H59.0818C61.4015 3.72546 63.2821 5.66429 63.2821 8.05566V8.05566Z" fill="url(#paint13_linear_14_1462)"/>
<path d="M23.3195 27.9963V9.06628H10.9727V27.9963C10.9727 30.1822 9.89277 32.2177 8.1074 33.3969C3.21118 36.631 0.249451 42.2132 0.249451 48.2079V93.1602C0.249451 96.9377 3.21974 99.9998 6.88387 99.9998H27.4081C31.0722 99.9998 34.0425 96.9377 34.0425 93.1602V48.208C34.0425 42.2131 31.081 36.631 26.1846 33.3971C24.3994 32.2179 23.3195 30.1824 23.3195 27.9963V27.9963Z" fill="url(#paint14_linear_14_1462)"/>
<path d="M23.3195 27.9963V9.06628H10.9727V27.9963C10.9727 30.1822 9.89277 32.2177 8.1074 33.3969C3.21118 36.631 0.249451 42.2132 0.249451 48.2079V93.1602C0.249451 96.9377 3.21974 99.9998 6.88387 99.9998H27.4081C31.0722 99.9998 34.0425 96.9377 34.0425 93.1602V48.208C34.0425 42.2131 31.081 36.631 26.1846 33.3971C24.3994 32.2179 23.3195 30.1824 23.3195 27.9963V27.9963Z" fill="url(#paint15_linear_14_1462)"/>
<path d="M23.3195 27.9963V9.06628H10.9727V27.9963C10.9727 30.1822 9.89277 32.2177 8.1074 33.3969C3.21118 36.631 0.249451 42.2132 0.249451 48.2079V93.1602C0.249451 96.9377 3.21974 99.9998 6.88387 99.9998H27.4081C31.0722 99.9998 34.0425 96.9377 34.0425 93.1602V48.208C34.0425 42.2131 31.081 36.631 26.1846 33.3971C24.3994 32.2179 23.3195 30.1824 23.3195 27.9963V27.9963Z" fill="url(#paint16_linear_14_1462)"/>
<path d="M26.1848 33.3971C24.3994 32.2179 23.3195 30.1824 23.3195 27.9965V9.06628H16.8279V100H27.4083C31.0724 100 34.0427 96.9379 34.0427 93.1604V48.208C34.0427 42.2131 31.081 36.631 26.1848 33.3971Z" fill="url(#paint17_linear_14_1462)"/>
<path d="M10.9727 9.06628V27.9963C10.9727 28.8275 10.8156 29.6367 10.524 30.3855H23.7684C23.4766 29.6365 23.3197 28.8275 23.3197 27.9963V9.06628H10.9727Z" fill="url(#paint18_linear_14_1462)"/>
<path d="M22.9967 15.9011H11.2955C10.2011 15.9011 9.31403 14.9866 9.31403 13.8584V12.5561C9.31403 11.4278 10.2011 10.5133 11.2955 10.5133H22.9967C24.0911 10.5133 24.9782 11.4278 24.9782 12.5561V13.8584C24.9782 14.9866 24.0911 15.9011 22.9967 15.9011Z" fill="url(#paint19_linear_14_1462)"/>
<path d="M22.9967 10.5135H11.2955C10.2011 10.5135 9.31403 9.59894 9.31403 8.47071V7.16835C9.31403 6.04012 10.2011 5.12561 11.2955 5.12561H22.9967C24.0911 5.12561 24.9782 6.04012 24.9782 7.16835V8.47071C24.9782 9.59875 24.0911 10.5135 22.9967 10.5135Z" fill="url(#paint20_linear_14_1462)"/>
<path d="M22.9967 10.5135H11.2955C10.2011 10.5135 9.31403 9.59894 9.31403 8.47071V7.16835C9.31403 6.04012 10.2011 5.12561 11.2955 5.12561H22.9967C24.0911 5.12561 24.9782 6.04012 24.9782 7.16835V8.47071C24.9782 9.59875 24.0911 10.5135 22.9967 10.5135Z" fill="url(#paint21_linear_14_1462)"/>
<path d="M0.249451 83.6625V93.1603C0.249451 96.9378 3.21974 99.9999 6.88387 99.9999H27.4081C31.0722 99.9999 34.0425 96.9378 34.0425 93.1603V83.6625H0.249451Z" fill="url(#paint22_linear_14_1462)"/>
<path d="M26.6291 84.8435H7.66329C6.36273 84.8435 5.30847 83.7566 5.30847 82.4159V57.549C5.30847 56.2082 6.36273 55.1213 7.66329 55.1213H26.6291C27.9296 55.1213 28.9839 56.2082 28.9839 57.549V82.4159C28.9839 83.7566 27.9294 84.8435 26.6291 84.8435Z" fill="url(#paint23_linear_14_1462)"/>
<path d="M26.6291 84.8435H7.66329C6.36273 84.8435 5.30847 83.7566 5.30847 82.4159V57.549C5.30847 56.2082 6.36273 55.1213 7.66329 55.1213H26.6291C27.9296 55.1213 28.9839 56.2082 28.9839 57.549V82.4159C28.9839 83.7566 27.9294 84.8435 26.6291 84.8435Z" fill="url(#paint24_linear_14_1462)"/>
<path d="M17.1461 60.1079C20.2041 60.1079 22.6831 57.5522 22.6831 54.3996C22.6831 51.2471 20.2041 48.6914 17.1461 48.6914C14.0881 48.6914 11.6091 51.2471 11.6091 54.3996C11.6091 57.5522 14.0881 60.1079 17.1461 60.1079Z" fill="url(#paint25_linear_14_1462)"/>
<path d="M29.2224 73.2958H5.06975C4.09442 73.2958 3.30359 72.4808 3.30359 71.4751V66.0621C3.30359 65.0566 4.09423 64.2413 5.06975 64.2413H29.2226C30.1979 64.2413 30.9887 65.0564 30.9887 66.0621V71.4751C30.9885 72.4808 30.1979 73.2958 29.2224 73.2958Z" fill="url(#paint26_linear_14_1462)"/>
<path d="M26.8688 70.8589H7.42349C6.3038 70.8589 5.396 69.9232 5.396 68.7687C5.396 67.6143 6.3038 66.6785 7.42349 66.6785H26.8689C27.9888 66.6785 28.8964 67.6143 28.8964 68.7687C28.8962 69.9232 27.9886 70.8589 26.8688 70.8589Z" fill="white"/>
<path d="M23.2036 82.0149H11.0883C9.96866 82.0149 9.06085 81.0792 9.06085 79.9247C9.06085 78.7704 9.96866 77.8345 11.0883 77.8345H23.2036C24.3235 77.8345 25.2311 78.7704 25.2311 79.9247C25.2311 81.0792 24.3235 82.0149 23.2036 82.0149Z" fill="white"/>
<path d="M26.5743 8.05566C26.5743 8.28331 26.4866 8.50174 26.3303 8.66272C25.5067 9.51174 24.1716 9.51174 23.3482 8.66272L22.4843 7.77213C21.661 6.92331 20.3254 6.92331 19.5022 7.77213L18.6363 8.66272C17.8129 9.51154 16.4795 9.51154 15.6561 8.66272L14.7901 7.77213C13.9668 6.92331 12.6312 6.92331 11.8081 7.77213L10.9442 8.66272C10.1206 9.51174 8.78546 9.51174 7.9621 8.66272C7.80595 8.50174 7.71808 8.28331 7.71808 8.05566C7.71808 5.66409 9.59874 3.72546 11.9184 3.72546H22.374C24.6936 3.72546 26.5743 5.66429 26.5743 8.05566V8.05566Z" fill="url(#paint27_linear_14_1462)"/>
<path d="M41.9123 25.21V5.54749H29.0875V25.21C29.0875 27.4806 27.966 29.5947 26.1113 30.8196C21.0255 34.1789 17.9495 39.9769 17.9495 46.2038V92.8955C17.9495 96.8191 21.0348 99.9999 24.8406 99.9999H46.1592C49.965 99.9999 53.0504 96.8191 53.0504 92.8955V46.204C53.0504 39.9771 49.9741 34.1789 44.8885 30.8198C43.0341 29.5949 41.9123 27.4806 41.9123 25.21V25.21Z" fill="url(#paint28_linear_14_1462)"/>
<path d="M41.9123 25.21V5.54749H29.0875V25.21C29.0875 27.4806 27.966 29.5947 26.1113 30.8196C21.0255 34.1789 17.9495 39.9769 17.9495 46.2038V92.8955C17.9495 96.8191 21.0348 99.9999 24.8406 99.9999H46.1592C49.965 99.9999 53.0504 96.8191 53.0504 92.8955V46.204C53.0504 39.9771 49.9741 34.1789 44.8885 30.8198C43.0341 29.5949 41.9123 27.4806 41.9123 25.21V25.21Z" fill="url(#paint29_linear_14_1462)"/>
<path d="M34.0428 93.1604V48.2081C34.0428 42.2132 31.0812 36.631 26.1848 33.3971C25.5768 32.9955 25.053 32.4928 24.6235 31.9204C20.4327 35.3649 17.9497 40.6108 17.9497 46.2039V92.8957C17.9497 96.8192 21.0351 100 24.8409 100H27.4083C31.0723 100 34.0428 96.9379 34.0428 93.1604Z" fill="url(#paint30_linear_14_1462)"/>
<path d="M44.8885 30.8196C43.034 29.5947 41.9123 27.4806 41.9123 25.21V5.54749H35.1694V100H46.1592C49.965 100 53.0504 96.8193 53.0504 92.8957V46.204C53.0504 39.9771 49.9743 34.1789 44.8885 30.8196V30.8196Z" fill="url(#paint31_linear_14_1462)"/>
<path d="M53.0503 92.8957V46.2039C53.0503 40.6108 50.5673 35.3649 46.3766 31.9204C45.9469 32.4928 45.4231 32.9955 44.8152 33.3971C39.919 36.6312 36.9573 42.2133 36.9573 48.2081V93.1604C36.9573 96.9379 39.9276 100 43.5917 100H46.1592C49.9652 100 53.0503 96.8192 53.0503 92.8957V92.8957Z" fill="url(#paint32_linear_14_1462)"/>
<path d="M29.0878 5.54749V25.21C29.0878 26.0736 28.9248 26.914 28.6216 27.6918H42.3785C42.0755 26.914 41.9123 26.0736 41.9123 25.21V5.54749H29.0878Z" fill="url(#paint33_linear_14_1462)"/>
<path d="M41.5771 12.6469H29.423C28.2864 12.6469 27.3649 11.6969 27.3649 10.5252V9.17242C27.3649 8.00066 28.2864 7.05066 29.423 7.05066H41.5771C42.7138 7.05066 43.6353 8.00066 43.6353 9.17242V10.5252C43.6351 11.6969 42.7138 12.6469 41.5771 12.6469Z" fill="url(#paint34_linear_14_1462)"/>
<path d="M41.5771 7.05062H29.423C28.2864 7.05062 27.3649 6.10062 27.3649 4.92886V3.57611C27.3649 2.40435 28.2864 1.45435 29.423 1.45435H41.5771C42.7138 1.45435 43.6353 2.40435 43.6353 3.57611V4.92886C43.6351 6.10062 42.7138 7.05062 41.5771 7.05062Z" fill="url(#paint35_linear_14_1462)"/>
<path d="M41.5771 7.05062H29.423C28.2864 7.05062 27.3649 6.10062 27.3649 4.92886V3.57611C27.3649 2.40435 28.2864 1.45435 29.423 1.45435H41.5771C42.7138 1.45435 43.6353 2.40435 43.6353 3.57611V4.92886C43.6351 6.10062 42.7138 7.05062 41.5771 7.05062Z" fill="url(#paint36_linear_14_1462)"/>
<path d="M17.9497 83.0304V92.8957C17.9497 96.8192 21.0351 100 24.8409 100H46.1594C49.9652 100 53.0506 96.8192 53.0506 92.8957V83.0304H17.9497Z" fill="url(#paint37_linear_14_1462)"/>
<path d="M45.3499 84.257H25.6501C24.2994 84.257 23.2042 83.128 23.2042 81.7354V55.9062C23.2042 54.5137 24.2994 53.3846 25.6501 53.3846H45.3499C46.7007 53.3846 47.7958 54.5137 47.7958 55.9062V81.7354C47.7958 83.1282 46.7007 84.257 45.3499 84.257Z" fill="url(#paint38_linear_14_1462)"/>
<path d="M35.5 58.5644C38.6764 58.5644 41.2513 55.9098 41.2513 52.6351C41.2513 49.3605 38.6764 46.7059 35.5 46.7059C32.3236 46.7059 29.7487 49.3605 29.7487 52.6351C29.7487 55.9098 32.3236 58.5644 35.5 58.5644Z" fill="url(#paint39_linear_14_1462)"/>
<path d="M48.0436 72.2626H22.9564C21.9432 72.2626 21.1219 71.4159 21.1219 70.3714V64.7488C21.1219 63.7043 21.9432 62.8577 22.9564 62.8577H48.0438C49.057 62.8577 49.8783 63.7043 49.8783 64.7488V70.3714C49.8781 71.4159 49.0568 72.2626 48.0436 72.2626V72.2626Z" fill="url(#paint40_linear_14_1462)"/>
<path d="M45.5988 69.7312H25.4011C24.2381 69.7312 23.2951 68.7592 23.2951 67.56C23.2951 66.361 24.2379 65.3888 25.4011 65.3888H45.599C46.7621 65.3888 47.7051 66.361 47.7051 67.56C47.7049 68.7592 46.7621 69.7312 45.5988 69.7312V69.7312Z" fill="white"/>
<path d="M41.792 81.3191H29.2079C28.0449 81.3191 27.1019 80.3471 27.1019 79.1479C27.1019 77.9488 28.0447 76.9767 29.2079 76.9767H41.792C42.9551 76.9767 43.8981 77.9488 43.8981 79.1479C43.8979 80.3471 42.9551 81.3191 41.792 81.3191Z" fill="white"/>
<path d="M45.293 4.49784C45.293 4.73431 45.2019 4.96118 45.0396 5.12843C44.1843 6.0102 42.7974 6.0102 41.9421 5.12843L41.0448 4.20333C40.1896 3.32177 38.8024 3.32177 37.9472 4.20333L37.0478 5.12843C36.1927 6.01 34.8075 6.01 33.9524 5.12843L33.0529 4.20333C32.1978 3.32177 30.8105 3.32177 29.9554 4.20333L29.058 5.12843C28.2027 6.0102 26.8158 6.0102 25.9605 5.12843C25.7983 4.96118 25.7072 4.73431 25.7072 4.49784C25.707 2.01373 27.6603 0 30.0699 0H40.9301C43.3397 0 45.293 2.01373 45.293 4.49784Z" fill="url(#paint41_linear_14_1462)"/>
<defs>
<linearGradient id="paint0_linear_14_1462" x1="42.7799" y1="54.5331" x2="66.1516" y2="54.5331" gradientUnits="userSpaceOnUse">
<stop stop-color="#BBEC6C"/>
<stop offset="0.2905" stop-color="#ABDC59"/>
<stop offset="0.8729" stop-color="#82B22A"/>
<stop offset="1" stop-color="#78A91F"/>
</linearGradient>
<linearGradient id="paint1_linear_14_1462" x1="42.7799" y1="54.5331" x2="66.1516" y2="54.5331" gradientUnits="userSpaceOnUse">
<stop stop-color="#BBEC6C"/>
<stop offset="0.2905" stop-color="#ABDC59"/>
<stop offset="0.8729" stop-color="#82B22A"/>
<stop offset="1" stop-color="#78A91F"/>
</linearGradient>
<linearGradient id="paint2_linear_14_1462" x1="62.4831" y1="53.912" x2="44.2149" y2="55.5732" gradientUnits="userSpaceOnUse">
<stop stop-color="#026841" stop-opacity="0"/>
<stop offset="0.2339" stop-color="#076743" stop-opacity="0.234"/>
<stop offset="0.5279" stop-color="#176349" stop-opacity="0.528"/>
<stop offset="0.8529" stop-color="#305C53" stop-opacity="0.853"/>
<stop offset="1" stop-color="#3E5959"/>
</linearGradient>
<linearGradient id="paint3_linear_14_1462" x1="58.8817" y1="54.5331" x2="72.247" y2="54.5331" gradientUnits="userSpaceOnUse">
<stop stop-color="#026841" stop-opacity="0"/>
<stop offset="0.2339" stop-color="#076743" stop-opacity="0.234"/>
<stop offset="0.5279" stop-color="#176349" stop-opacity="0.528"/>
<stop offset="0.8529" stop-color="#305C53" stop-opacity="0.853"/>
<stop offset="1" stop-color="#3E5959"/>
</linearGradient>
<linearGradient id="paint4_linear_14_1462" x1="53.8539" y1="24.0869" x2="53.8539" y2="14.3755" gradientUnits="userSpaceOnUse">
<stop stop-color="#026841" stop-opacity="0"/>
<stop offset="0.2339" stop-color="#076743" stop-opacity="0.234"/>
<stop offset="0.5279" stop-color="#176349" stop-opacity="0.528"/>
<stop offset="0.8529" stop-color="#305C53" stop-opacity="0.853"/>
<stop offset="1" stop-color="#3E5959"/>
</linearGradient>
<linearGradient id="paint5_linear_14_1462" x1="53.8539" y1="11.4264" x2="53.8539" y2="14.8792" gradientUnits="userSpaceOnUse">
<stop stop-color="#BBEC6C"/>
<stop offset="0.2905" stop-color="#ABDC59"/>
<stop offset="0.8729" stop-color="#82B22A"/>
<stop offset="1" stop-color="#78A91F"/>
</linearGradient>
<linearGradient id="paint6_linear_14_1462" x1="53.8304" y1="6.31718" x2="53.8898" y2="9.88438" gradientUnits="userSpaceOnUse">
<stop stop-color="#BBEC6C"/>
<stop offset="0.2905" stop-color="#ABDC59"/>
<stop offset="0.8729" stop-color="#82B22A"/>
<stop offset="1" stop-color="#78A91F"/>
</linearGradient>
<linearGradient id="paint7_linear_14_1462" x1="53.8539" y1="9.65228" x2="53.8539" y2="6.45326" gradientUnits="userSpaceOnUse">
<stop stop-color="#026841" stop-opacity="0"/>
<stop offset="1" stop-color="#3E5959"/>
</linearGradient>
<linearGradient id="paint8_linear_14_1462" x1="53.8539" y1="91.1423" x2="53.8539" y2="102.297" gradientUnits="userSpaceOnUse">
<stop stop-color="#026841" stop-opacity="0"/>
<stop offset="0.2339" stop-color="#076743" stop-opacity="0.234"/>
<stop offset="0.5279" stop-color="#176349" stop-opacity="0.528"/>
<stop offset="0.8529" stop-color="#305C53" stop-opacity="0.853"/>
<stop offset="1" stop-color="#3E5959"/>
</linearGradient>
<linearGradient id="paint9_linear_14_1462" x1="48.6819" y1="60.3341" x2="59.1812" y2="78.7629" gradientUnits="userSpaceOnUse">
<stop stop-color="#EAF6FF"/>
<stop offset="1" stop-color="#B3DAFE"/>
</linearGradient>
<linearGradient id="paint10_linear_14_1462" x1="60.2255" y1="69.9825" x2="52.7981" y2="69.9825" gradientUnits="userSpaceOnUse">
<stop stop-color="#D8ECFE" stop-opacity="0"/>
<stop offset="1" stop-color="#678D98"/>
</linearGradient>
<linearGradient id="paint11_linear_14_1462" x1="51.04" y1="50.9261" x2="56.0513" y2="56.7465" gradientUnits="userSpaceOnUse">
<stop stop-color="#FEE45A"/>
<stop offset="1" stop-color="#FEA613"/>
</linearGradient>
<linearGradient id="paint12_linear_14_1462" x1="53.4152" y1="67.3468" x2="54.8275" y2="71.6524" gradientUnits="userSpaceOnUse">
<stop stop-color="#904D24"/>
<stop offset="1" stop-color="#6D3326"/>
</linearGradient>
<linearGradient id="paint13_linear_14_1462" x1="53.8539" y1="4.61605" x2="53.8539" y2="8.32076" gradientUnits="userSpaceOnUse">
<stop stop-color="#FEE45A"/>
<stop offset="1" stop-color="#FEA613"/>
</linearGradient>
<linearGradient id="paint14_linear_14_1462" x1="6.07211" y1="54.5331" x2="29.4438" y2="54.5331" gradientUnits="userSpaceOnUse">
<stop stop-color="#BBEC6C"/>
<stop offset="0.2905" stop-color="#ABDC59"/>
<stop offset="0.8729" stop-color="#82B22A"/>
<stop offset="1" stop-color="#78A91F"/>
</linearGradient>
<linearGradient id="paint15_linear_14_1462" x1="6.07211" y1="54.5331" x2="29.4438" y2="54.5331" gradientUnits="userSpaceOnUse">
<stop stop-color="#BBEC6C"/>
<stop offset="0.2905" stop-color="#ABDC59"/>
<stop offset="0.8729" stop-color="#82B22A"/>
<stop offset="1" stop-color="#78A91F"/>
</linearGradient>
<linearGradient id="paint16_linear_14_1462" x1="9.65008" y1="53.8773" x2="22.2138" y2="55.3544" gradientUnits="userSpaceOnUse">
<stop stop-color="#026841" stop-opacity="0"/>
<stop offset="0.2339" stop-color="#076743" stop-opacity="0.234"/>
<stop offset="0.5279" stop-color="#176349" stop-opacity="0.528"/>
<stop offset="0.8529" stop-color="#305C53" stop-opacity="0.853"/>
<stop offset="1" stop-color="#3E5959"/>
</linearGradient>
<linearGradient id="paint17_linear_14_1462" x1="22.1739" y1="54.5331" x2="35.5392" y2="54.5331" gradientUnits="userSpaceOnUse">
<stop stop-color="#026841" stop-opacity="0"/>
<stop offset="0.2339" stop-color="#076743" stop-opacity="0.234"/>
<stop offset="0.5279" stop-color="#176349" stop-opacity="0.528"/>
<stop offset="0.8529" stop-color="#305C53" stop-opacity="0.853"/>
<stop offset="1" stop-color="#3E5959"/>
</linearGradient>
<linearGradient id="paint18_linear_14_1462" x1="17.1461" y1="24.0869" x2="17.1461" y2="14.3755" gradientUnits="userSpaceOnUse">
<stop stop-color="#026841" stop-opacity="0"/>
<stop offset="0.2339" stop-color="#076743" stop-opacity="0.234"/>
<stop offset="0.5279" stop-color="#176349" stop-opacity="0.528"/>
<stop offset="0.8529" stop-color="#305C53" stop-opacity="0.853"/>
<stop offset="1" stop-color="#3E5959"/>
</linearGradient>
<linearGradient id="paint19_linear_14_1462" x1="17.1461" y1="11.4264" x2="17.1461" y2="14.8792" gradientUnits="userSpaceOnUse">
<stop stop-color="#BBEC6C"/>
<stop offset="0.2905" stop-color="#ABDC59"/>
<stop offset="0.8729" stop-color="#82B22A"/>
<stop offset="1" stop-color="#78A91F"/>
</linearGradient>
<linearGradient id="paint20_linear_14_1462" x1="17.1225" y1="6.31718" x2="17.182" y2="9.88438" gradientUnits="userSpaceOnUse">
<stop stop-color="#BBEC6C"/>
<stop offset="0.2905" stop-color="#ABDC59"/>
<stop offset="0.8729" stop-color="#82B22A"/>
<stop offset="1" stop-color="#78A91F"/>
</linearGradient>
<linearGradient id="paint21_linear_14_1462" x1="17.1461" y1="9.65228" x2="17.1461" y2="6.45326" gradientUnits="userSpaceOnUse">
<stop stop-color="#026841" stop-opacity="0"/>
<stop offset="1" stop-color="#3E5959"/>
</linearGradient>
<linearGradient id="paint22_linear_14_1462" x1="17.1461" y1="91.1423" x2="17.1461" y2="102.297" gradientUnits="userSpaceOnUse">
<stop stop-color="#026841" stop-opacity="0"/>
<stop offset="0.2339" stop-color="#076743" stop-opacity="0.234"/>
<stop offset="0.5279" stop-color="#176349" stop-opacity="0.528"/>
<stop offset="0.8529" stop-color="#305C53" stop-opacity="0.853"/>
<stop offset="1" stop-color="#3E5959"/>
</linearGradient>
<linearGradient id="paint23_linear_14_1462" x1="11.9741" y1="60.3341" x2="22.4733" y2="78.7629" gradientUnits="userSpaceOnUse">
<stop stop-color="#EAF6FF"/>
<stop offset="1" stop-color="#B3DAFE"/>
</linearGradient>
<linearGradient id="paint24_linear_14_1462" x1="9.63334" y1="69.9825" x2="19.1508" y2="69.9825" gradientUnits="userSpaceOnUse">
<stop stop-color="#D8ECFE" stop-opacity="0"/>
<stop offset="1" stop-color="#678D98"/>
</linearGradient>
<linearGradient id="paint25_linear_14_1462" x1="14.3322" y1="50.9261" x2="19.3435" y2="56.7465" gradientUnits="userSpaceOnUse">
<stop stop-color="#FEE45A"/>
<stop offset="1" stop-color="#FEA613"/>
</linearGradient>
<linearGradient id="paint26_linear_14_1462" x1="16.7073" y1="67.3468" x2="18.1196" y2="71.6524" gradientUnits="userSpaceOnUse">
<stop stop-color="#904D24"/>
<stop offset="1" stop-color="#6D3326"/>
</linearGradient>
<linearGradient id="paint27_linear_14_1462" x1="17.1461" y1="4.61605" x2="17.1461" y2="8.32076" gradientUnits="userSpaceOnUse">
<stop stop-color="#FEE45A"/>
<stop offset="1" stop-color="#FEA613"/>
</linearGradient>
<linearGradient id="paint28_linear_14_1462" x1="23.9975" y1="52.7738" x2="48.2736" y2="52.7738" gradientUnits="userSpaceOnUse">
<stop stop-color="#BBEC6C"/>
<stop offset="0.2905" stop-color="#ABDC59"/>
<stop offset="0.8729" stop-color="#82B22A"/>
<stop offset="1" stop-color="#78A91F"/>
</linearGradient>
<linearGradient id="paint29_linear_14_1462" x1="23.9975" y1="52.7738" x2="48.2736" y2="52.7738" gradientUnits="userSpaceOnUse">
<stop stop-color="#BBEC6C"/>
<stop offset="0.2905" stop-color="#ABDC59"/>
<stop offset="0.8729" stop-color="#82B22A"/>
<stop offset="1" stop-color="#78A91F"/>
</linearGradient>
<linearGradient id="paint30_linear_14_1462" x1="33.0494" y1="63.3241" x2="53.5036" y2="55.388" gradientUnits="userSpaceOnUse">
<stop stop-color="#026841" stop-opacity="0"/>
<stop offset="0.2339" stop-color="#076743" stop-opacity="0.234"/>
<stop offset="0.5279" stop-color="#176349" stop-opacity="0.528"/>
<stop offset="0.8529" stop-color="#305C53" stop-opacity="0.853"/>
<stop offset="1" stop-color="#3E5959"/>
</linearGradient>
<linearGradient id="paint31_linear_14_1462" x1="40.7224" y1="52.7738" x2="54.6048" y2="52.7738" gradientUnits="userSpaceOnUse">
<stop stop-color="#026841" stop-opacity="0"/>
<stop offset="0.2339" stop-color="#076743" stop-opacity="0.234"/>
<stop offset="0.5279" stop-color="#176349" stop-opacity="0.528"/>
<stop offset="0.8529" stop-color="#305C53" stop-opacity="0.853"/>
<stop offset="1" stop-color="#3E5959"/>
</linearGradient>
<linearGradient id="paint32_linear_14_1462" x1="39.0567" y1="63.7971" x2="9.40163" y2="52.3899" gradientUnits="userSpaceOnUse">
<stop stop-color="#026841" stop-opacity="0"/>
<stop offset="0.2339" stop-color="#076743" stop-opacity="0.234"/>
<stop offset="0.5279" stop-color="#176349" stop-opacity="0.528"/>
<stop offset="0.8529" stop-color="#305C53" stop-opacity="0.853"/>
<stop offset="1" stop-color="#3E5959"/>
</linearGradient>
<linearGradient id="paint33_linear_14_1462" x1="35.5" y1="21.1494" x2="35.5" y2="11.0622" gradientUnits="userSpaceOnUse">
<stop stop-color="#026841" stop-opacity="0"/>
<stop offset="0.2339" stop-color="#076743" stop-opacity="0.234"/>
<stop offset="0.5279" stop-color="#176349" stop-opacity="0.528"/>
<stop offset="0.8529" stop-color="#305C53" stop-opacity="0.853"/>
<stop offset="1" stop-color="#3E5959"/>
</linearGradient>
<linearGradient id="paint34_linear_14_1462" x1="35.5" y1="7.99909" x2="35.5" y2="11.5854" gradientUnits="userSpaceOnUse">
<stop stop-color="#BBEC6C"/>
<stop offset="0.2905" stop-color="#ABDC59"/>
<stop offset="0.8729" stop-color="#82B22A"/>
<stop offset="1" stop-color="#78A91F"/>
</linearGradient>
<linearGradient id="paint35_linear_14_1462" x1="35.4757" y1="2.69219" x2="35.5371" y2="6.39742" gradientUnits="userSpaceOnUse">
<stop stop-color="#BBEC6C"/>
<stop offset="0.2905" stop-color="#ABDC59"/>
<stop offset="0.8729" stop-color="#82B22A"/>
<stop offset="1" stop-color="#78A91F"/>
</linearGradient>
<linearGradient id="paint36_linear_14_1462" x1="35.5" y1="6.15611" x2="35.5" y2="2.83337" gradientUnits="userSpaceOnUse">
<stop stop-color="#026841" stop-opacity="0"/>
<stop offset="1" stop-color="#3E5959"/>
</linearGradient>
<linearGradient id="paint37_linear_14_1462" x1="35.5" y1="90.7996" x2="35.5" y2="102.386" gradientUnits="userSpaceOnUse">
<stop stop-color="#026841" stop-opacity="0"/>
<stop offset="0.2339" stop-color="#076743" stop-opacity="0.234"/>
<stop offset="0.5279" stop-color="#176349" stop-opacity="0.528"/>
<stop offset="0.8529" stop-color="#305C53" stop-opacity="0.853"/>
<stop offset="1" stop-color="#3E5959"/>
</linearGradient>
<linearGradient id="paint38_linear_14_1462" x1="30.1279" y1="58.7992" x2="41.0334" y2="77.941" gradientUnits="userSpaceOnUse">
<stop stop-color="#EAF6FF"/>
<stop offset="1" stop-color="#B3DAFE"/>
</linearGradient>
<linearGradient id="paint39_linear_14_1462" x1="32.5771" y1="49.0271" x2="37.7825" y2="55.0728" gradientUnits="userSpaceOnUse">
<stop stop-color="#FEE45A"/>
<stop offset="1" stop-color="#FEA613"/>
</linearGradient>
<linearGradient id="paint40_linear_14_1462" x1="35.0443" y1="66.0834" x2="36.5111" y2="70.5556" gradientUnits="userSpaceOnUse">
<stop stop-color="#904D24"/>
<stop offset="1" stop-color="#6D3326"/>
</linearGradient>
<linearGradient id="paint41_linear_14_1462" x1="35.5" y1="0.925098" x2="35.5" y2="4.77314" gradientUnits="userSpaceOnUse">
<stop stop-color="#FEE45A"/>
<stop offset="1" stop-color="#FEA613"/>
</linearGradient>
</defs>
</svg>
