<svg width="50" height="70" viewBox="0 0 84 106" fill="none"
  xmlns="http://www.w3.org/2000/svg">
  <path d="M21.4782 58.2297L6.31445 97.0681L19.0985 93.4023L26.0186 104.76L41.1824 65.923L21.4782 58.2297Z" fill="#F9A287"/>
  <path d="M24.5705 59.4374L21.4782 58.2297L6.31445 97.0681L10.3258 95.9174L24.5705 59.4374Z" fill="#FFC8BB"/>
  <path d="M26.0186 105.652C25.7087 105.652 25.4201 105.492 25.258 105.225L18.6906 94.4462L6.55846 97.9232C6.23605 98.0176 5.88158 97.9178 5.65537 97.6667C5.42558 97.4155 5.35968 97.0575 5.48258 96.7422L20.6464 57.9038C20.7319 57.683 20.9029 57.5066 21.1184 57.4122C21.3375 57.316 21.5815 57.3125 21.8006 57.398L41.5048 65.0912C41.9644 65.2711 42.1906 65.7877 42.0107 66.2437L26.8487 105.084C26.7258 105.399 26.4354 105.618 26.097 105.647C26.0721 105.65 26.0453 105.652 26.0186 105.652ZM19.1002 92.5135C19.4048 92.5135 19.697 92.6703 19.8608 92.941L25.8441 102.763L40.0299 66.4307L21.9859 59.3858L7.79999 95.7162L18.8544 92.5474C18.9364 92.5242 19.0183 92.5135 19.1002 92.5135Z" fill="#63312D"/>
  <path d="M41.1824 65.923L26.0186 104.76H32.8372L48.001 65.923H41.1824Z" fill="#DB785A"/>
  <path d="M60.8029 93.4023L53.8827 104.76H60.7031L66.608 95.0678L60.8029 93.4023Z" fill="#DB785A"/>
  <path d="M65.2418 58.2297L59.3245 60.54L73.5869 97.0681H80.4056L65.2418 58.2297Z" fill="#DB785A"/>
  <path d="M32.8373 105.652H26.0186C25.7247 105.652 25.4504 105.506 25.283 105.264C25.1173 105.02 25.0835 104.711 25.1886 104.437L40.3524 65.5988C40.486 65.2568 40.8155 65.0323 41.1824 65.0323H48.001C48.295 65.0323 48.5693 65.1784 48.7367 65.4207C48.9024 65.6647 48.9362 65.9728 48.8311 66.2472L33.6673 105.084C33.5337 105.426 33.2042 105.652 32.8373 105.652ZM27.3243 103.871H32.2299L46.6972 66.8136H41.7916L27.3243 103.871Z" fill="#63312D"/>
  <path d="M58.4231 58.2297L73.5869 97.0681L60.8029 93.4023L53.8827 104.76L38.7189 65.923L58.4231 58.2297Z" fill="#F9A287"/>
  <path d="M42.2814 65.923L58.8934 59.4374L58.4231 58.2297L38.7189 65.923L53.8827 104.76L56.0541 101.197L42.2814 65.923Z" fill="#FFC8BB"/>
  <path d="M53.8827 105.652C53.856 105.652 53.8311 105.652 53.8043 105.648C53.4677 105.618 53.1756 105.401 53.0527 105.086L37.8889 66.2472C37.709 65.7894 37.9352 65.2728 38.3948 65.0947L58.0989 57.4015C58.318 57.3142 58.5603 57.3195 58.7812 57.4157C58.9967 57.5101 59.1677 57.6883 59.2532 57.9073L74.417 96.7457C74.5399 97.061 74.474 97.419 74.2442 97.6702C74.0162 97.9196 73.6617 98.0193 73.3411 97.9267L61.209 94.4497L54.6415 105.228C54.4812 105.492 54.1927 105.652 53.8827 105.652ZM39.8732 66.4288L54.0591 102.761L60.0423 92.9392C60.2507 92.5972 60.6622 92.4369 61.0469 92.5473L72.1013 95.7162L57.9155 59.384L39.8732 66.4288Z" fill="#63312D"/>
  <path d="M60.7031 105.652H53.8827C53.5603 105.652 53.2629 105.477 53.1061 105.198C52.9476 104.916 52.9529 104.573 53.1221 104.298L60.0423 92.941C60.2507 92.599 60.6622 92.4387 61.0469 92.5491L66.852 94.2146C67.1192 94.2912 67.3347 94.4871 67.4363 94.7472C67.5378 95.0055 67.5111 95.2976 67.3668 95.5345L61.4637 105.228C61.3016 105.49 61.0149 105.652 60.7031 105.652ZM55.468 103.871H60.2026L65.2382 95.6022L61.209 94.4479L55.468 103.871Z" fill="#63312D"/>
  <path d="M80.4073 97.9588H73.5869C73.22 97.9588 72.8905 97.7344 72.7569 97.3924L58.4962 60.8661C58.3163 60.4083 58.5425 59.8917 59.0021 59.7136L64.9194 57.4033C65.1385 57.316 65.3825 57.3214 65.6016 57.4176C65.8171 57.512 65.9881 57.6901 66.0736 57.9092L81.2374 96.7476C81.3443 97.0219 81.3086 97.33 81.143 97.5741C80.9755 97.8127 80.7012 97.9588 80.4073 97.9588ZM74.1943 96.1776H79.1017L64.7377 59.3841L60.4787 61.0477L74.1943 96.1776Z" fill="#63312D"/>
  <path d="M37.3901 4.74593L52.2084 1.23865L60.2079 14.1972L73.1648 22.1951L69.6593 37.0151L73.1648 51.8333L60.2079 59.8311L52.2084 72.7897L37.3901 69.2824L22.5719 72.7897L14.5723 59.8311L1.61551 51.8333L5.12101 37.0151L1.61551 22.1951L14.5723 14.1972L22.5719 1.23865L37.3901 4.74593Z" fill="#F9DD9D"/>
  <path d="M18.1348 59.8311L5.17801 51.8333L8.68351 37.0151L5.17801 22.1951L18.1348 14.1972L25.6802 1.9743L22.5719 1.23865L14.5723 14.1972L1.61551 22.1951L5.12101 37.0151L1.61551 51.8333L14.5723 59.8311L22.5719 72.7897L25.6802 72.054L18.1348 59.8311Z" fill="#FFEECF"/>
  <path d="M52.2084 73.6786C52.1407 73.6786 52.0712 73.6714 52.0035 73.6536L37.3901 70.1962L22.7768 73.6536C22.4045 73.7445 22.0144 73.5824 21.8131 73.2546L13.9257 60.4777L1.14704 52.5903C0.819288 52.3891 0.660757 52.0008 0.748038 51.6267L4.20366 37.0133L0.748038 22.3999C0.658976 22.0259 0.819288 21.6376 1.14704 21.4363L13.9257 13.5471L21.8131 0.768437C22.0144 0.440687 22.4027 0.280375 22.7768 0.369437L37.3901 3.82684L52.0035 0.369437C52.3758 0.280375 52.7659 0.442468 52.9672 0.768437L60.8545 13.5471L73.6332 21.4363C73.961 21.6376 74.1195 22.0259 74.0322 22.3999L70.5748 37.0133L74.0322 51.6267C74.1213 51.999 73.961 52.3891 73.6332 52.5903L60.8545 60.4795L52.9672 73.2564C52.8015 73.5236 52.5129 73.6786 52.2084 73.6786ZM37.3901 68.3918C37.4596 68.3918 37.5273 68.3989 37.595 68.415L51.788 71.7726L59.4491 59.3627C59.5222 59.2451 59.6219 59.1453 59.7395 59.0723L72.1512 51.4112L68.7918 37.2182C68.758 37.0828 68.758 36.9421 68.7918 36.8085L72.1512 22.6155L59.7395 14.9543C59.6219 14.8813 59.5222 14.7815 59.4491 14.664L51.788 2.254L37.595 5.61166C37.4596 5.64372 37.3207 5.64372 37.1853 5.61166L22.9923 2.254L15.3311 14.664C15.2581 14.7815 15.1584 14.8813 15.0408 14.9543L2.62904 22.6155L5.9867 36.8085C6.02054 36.9438 6.02054 37.0846 5.9867 37.2182L2.62904 51.4112L15.0408 59.0723C15.1584 59.1453 15.2581 59.2451 15.3311 59.3627L22.9923 71.7726L37.1853 68.415C37.253 68.4007 37.3207 68.3918 37.3901 68.3918Z" fill="#63312D"/>
  <path d="M37.3901 60.2176C50.2045 60.2176 60.5927 49.8295 60.5927 37.0151C60.5927 24.2006 50.2045 13.8125 37.3901 13.8125C24.5757 13.8125 14.1876 24.2006 14.1876 37.0151C14.1876 49.8295 24.5757 60.2176 37.3901 60.2176Z" fill="#82D9FF"/>
  <path d="M17.7519 37.0151C17.7519 24.8029 27.1925 14.8154 39.1732 13.9034C38.5836 13.8589 37.994 13.8143 37.3919 13.8143C24.5776 13.8143 14.1894 24.2026 14.1894 37.0169C14.1894 49.8312 24.5776 60.2195 37.3919 60.2195C37.994 60.2195 38.5836 60.1749 39.1732 60.1304C27.1925 59.213 17.7519 49.2274 17.7519 37.0151Z" fill="#52B8D9"/>
  <path d="M37.3901 61.1065C24.1056 61.1065 13.2987 50.2996 13.2987 37.0151C13.2987 23.7305 24.1056 12.9219 37.3901 12.9219C50.6747 12.9219 61.4815 23.7287 61.4815 37.0133C61.4815 50.2978 50.6747 61.1065 37.3901 61.1065ZM37.3901 14.7031C25.0888 14.7031 15.08 24.712 15.08 37.0133C15.08 49.3146 25.0888 59.3234 37.3901 59.3234C49.6914 59.3234 59.7003 49.3146 59.7003 37.0133C59.7003 24.712 49.6914 14.7031 37.3901 14.7031Z" fill="#63312D"/>
  <path d="M82.1227 22.1951L69.1659 14.1972L61.1663 1.23865H52.2084L60.208 14.1972L73.1648 22.1951L69.6593 37.0133L73.1648 51.8333L60.208 59.8311L52.2084 72.7897H61.1663L69.1659 59.8311L82.1227 51.8333L78.6172 37.0133L82.1227 22.1951Z" fill="#EFC36A"/>
  <path d="M61.1681 73.6786H52.2101C51.8859 73.6786 51.5885 73.5041 51.4317 73.2226C51.2732 72.9412 51.2821 72.5956 51.4513 72.3213L59.4491 59.3645C59.5222 59.2469 59.6219 59.1472 59.7395 59.0742L72.1512 51.413L68.7918 37.22C68.758 37.0846 68.758 36.9439 68.7918 36.8103L72.1512 22.6173L59.7395 14.9562C59.6219 14.8831 59.5222 14.7834 59.4491 14.6658L51.4513 1.709C51.2821 1.43468 51.2732 1.08912 51.4317 0.807684C51.5885 0.526247 51.8859 0.351685 52.2101 0.351685H61.1681C61.478 0.351685 61.763 0.511997 61.9269 0.773841L69.8142 13.5525L82.5929 21.4417C82.9207 21.643 83.0792 22.0313 82.9919 22.4053L79.5345 37.0187L82.9919 51.6321C83.081 52.0062 82.9207 52.3945 82.5929 52.5957L69.8142 60.4831L61.9269 73.2618C61.763 73.5201 61.478 73.6786 61.1681 73.6786ZM53.8061 71.8974H60.6711L68.4088 59.3627C68.4819 59.2452 68.5816 59.1454 68.6992 59.0724L81.1109 51.4112L77.7515 37.2182C77.7176 37.0828 77.7176 36.9421 77.7515 36.8085L81.1109 22.6155L68.6992 14.9544C68.5816 14.8813 68.4819 14.7816 68.4088 14.664L60.6711 2.12937H53.8061L60.8545 13.549L73.6332 21.4381C73.961 21.6394 74.1195 22.0277 74.0322 22.4018L70.5748 37.0152L74.0322 51.6285C74.1213 52.0026 73.961 52.3909 73.6332 52.5922L60.8545 60.4796L53.8061 71.8974Z" fill="#63312D"/>
  <path d="M82.3828 21.3917H72.9154V23.173H82.3828V21.3917Z" fill="#63312D"/>
  <path d="M82.2563 50.9213H73.1113V52.7025H82.2563V50.9213Z" fill="#63312D"/>
  <path d="M39.1927 26.2136L41.9448 31.7889L48.0972 32.6831C49.7466 32.9236 50.4039 34.9489 49.2105 36.112L44.7591 40.4512L45.8101 46.5787C46.0915 48.221 44.3673 49.4732 42.8924 48.6984L37.3901 45.8056L31.8878 48.6984C30.413 49.4732 28.6887 48.221 28.9702 46.5787L30.0211 40.4512L25.5697 36.112C24.3763 34.9489 25.0354 32.9218 26.683 32.6831L32.8355 31.7889L35.5875 26.2136C36.3249 24.7209 38.4553 24.7209 39.1927 26.2136Z" fill="#F8F3F3"/>
  <path d="M43.8311 49.824C43.368 49.824 42.9049 49.7118 42.4774 49.4874L37.3901 46.8137L32.3011 49.4874C31.3179 50.0075 30.1493 49.9202 29.248 49.2683C28.3467 48.6145 27.905 47.528 28.092 46.4307L29.0664 40.7628L24.9481 36.7496C24.1519 35.973 23.8704 34.833 24.2142 33.7767C24.5562 32.7187 25.454 31.9616 26.5548 31.8013L32.2441 30.9748L34.7895 25.8199C35.2793 24.8224 36.2768 24.2025 37.3883 24.2025C37.3883 24.2025 37.3884 24.2025 37.3901 24.2025C38.5016 24.2025 39.4991 24.8224 39.9908 25.8199L42.5362 30.9748L48.2255 31.8013C49.3245 31.9616 50.2223 32.7169 50.566 33.775C50.908 34.833 50.6284 35.9712 49.8339 36.7496L45.7139 40.7628L46.6865 46.429C46.8735 47.5244 46.4318 48.6128 45.5322 49.2665C45.0246 49.637 44.4296 49.824 43.8311 49.824ZM37.3901 44.9149C37.5326 44.9149 37.6751 44.9487 37.8034 45.0182L43.3057 47.911C43.6922 48.114 44.1339 48.0802 44.4849 47.8255C44.8375 47.569 45.005 47.1593 44.9302 46.73L43.8792 40.6025C43.8311 40.3139 43.9255 40.0182 44.1375 39.8152L48.5906 35.476C48.9024 35.1715 49.0057 34.7422 48.8721 34.3271C48.7367 33.9139 48.3983 33.6271 47.9672 33.5648L41.8148 32.6706C41.5262 32.6296 41.2733 32.4461 41.145 32.1843L38.393 26.609C38.2006 26.2189 37.8248 25.9855 37.3901 25.9855H37.3883C36.9537 25.9855 36.5797 26.2189 36.3855 26.609L33.6335 32.1843C33.5052 32.4461 33.2523 32.6296 32.9637 32.6706L26.8113 33.5648C26.3802 33.6289 26.04 33.9121 25.9064 34.3271C25.771 34.7422 25.8761 35.1715 26.1878 35.476L30.641 39.8152C30.8512 40.02 30.9473 40.3139 30.8993 40.6025L29.8465 46.73C29.7735 47.1593 29.9392 47.569 30.2919 47.8255C30.6428 48.082 31.0845 48.114 31.471 47.9092L36.9751 45.0164C37.1051 44.9487 37.2476 44.9149 37.3901 44.9149Z" fill="#63312D"/>
</svg>
