<svg width="37" height="40" viewBox="0 0 37 40" fill="none"
  xmlns="http://www.w3.org/2000/svg">
  <path d="M5.31875 21.6922L5.2476 20.846C5.17645 19.0768 5.10529 17.3075 5.17645 15.5383V14.6152L6.1726 14.846L6.74183 14.9998V17.846C6.74183 18.5383 7.31106 19.1537 7.95144 19.1537C8.59183 19.1537 9.16106 18.5383 9.16106 17.846V15.3845H9.8726H10.4418C11.7938 15.3845 13.1457 15.2306 14.4264 14.9229L14.8534 14.846L15.7784 14.6922V15.6152C15.8495 17.3845 15.8495 19.1537 15.7784 20.846L15.7072 21.6922H14.9957H5.31875Z" fill="white"/>
  <path d="M15.7783 15.6152V14.6152L14.9245 14.846L14.4976 14.9229C14.1418 14.9998 13.7149 15.0768 13.288 15.1537V15.5383C13.3591 17.3075 13.3591 19.0768 13.288 20.7691L13.2168 21.6152H12.5764H14.9956H15.636L15.7072 20.7691C15.8495 19.0768 15.8495 17.3075 15.7783 15.6152Z" fill="#F7EEBA"/>
  <path d="M10.1572 39.0771C9.01873 39.154 7.88027 39.0001 6.74181 38.6155L6.03027 38.3848L6.31489 37.6155C6.52835 37.0771 6.67066 36.6155 6.74181 36.0771L6.95527 35.3848L7.59566 35.5386C8.59181 35.7694 9.51681 35.9232 10.513 35.9232C11.438 35.9232 12.2918 35.7694 13.2168 35.5386L13.9284 35.3848L14.1418 36.154C14.2841 36.6925 14.4264 37.154 14.5687 37.6925L14.8533 38.4617L14.1418 38.6925C13.0745 39.0001 11.936 39.154 10.7264 39.154L10.1572 39.0771Z" fill="#FBCF4C"/>
  <path d="M14.5687 37.6153C14.3553 37.0768 14.213 36.6153 14.1418 36.0768L13.9284 35.3076L13.2168 35.4615C12.5053 35.6922 11.7937 35.7692 11.0111 35.7692L11.1534 36.3076C11.2957 36.8461 11.438 37.3076 11.5803 37.8461L11.8649 38.6153L11.1534 38.8461L10.7264 38.9999C11.8649 38.9999 13.0034 38.923 14.0707 38.5384L14.7822 38.3076L14.5687 37.6153Z" fill="#EDB248"/>
  <path d="M7.95144 19.1534C7.31106 19.1534 6.74183 18.538 6.74183 17.8457V14.9995L6.03029 14.8457L5.46106 14.6919V12.9226V12.8457C5.67452 12.0765 6.38606 11.538 7.16875 11.7688C7.66683 11.9226 8.09375 12.3842 8.16491 12.9226H8.30721C8.23606 12.6919 8.23606 12.4611 8.23606 12.2303C8.23606 10.9226 9.16106 9.92263 10.2995 9.8457C11.5091 9.8457 12.4341 10.8457 12.5053 12.0765C12.5053 12.3842 12.4341 12.6919 12.363 12.9226H12.5053C12.5764 11.9226 13.4303 11.2303 14.2841 11.3072C15.2091 11.3842 15.8495 12.3072 15.7784 13.2303C15.7072 14.1534 14.9957 14.8457 14.1418 14.8457L14.0707 14.9226H13.9995C12.8611 15.1534 11.6514 15.3072 10.513 15.3072C10.0861 15.3072 9.65914 15.3072 9.23221 15.2303V17.6919C9.16106 18.538 8.66298 19.1534 7.95144 19.1534C8.0226 19.1534 7.95144 19.1534 7.95144 19.1534Z" fill="white"/>
  <path d="M14.1418 11.3848C13.7149 11.3848 13.288 11.5386 13.0033 11.8463C13.6437 12.5386 13.7149 13.6925 13.0745 14.3848C12.7899 14.7694 12.2918 15.0002 11.8649 15.0002L11.7937 15.0771H11.7226C10.9399 15.2309 10.1572 15.3848 9.30334 15.3848C9.73027 15.3848 10.086 15.4617 10.4418 15.4617C11.6514 15.4617 12.7899 15.3078 13.9283 15.0771H13.9995L14.0707 15.0002C14.9957 15.0002 15.7072 14.2309 15.7072 13.2309C15.7072 12.2309 15.0668 11.3848 14.1418 11.3848Z" fill="#F7EEBA"/>
  <path d="M10.5842 35.8462C9.588 35.8462 8.5207 35.6924 7.5957 35.4616L6.95531 35.3078L7.02647 34.6155C7.31108 31.5385 6.45723 27.2308 5.7457 24.1539C5.60339 23.6155 5.53224 23.077 5.46108 22.6155L5.24762 21.6924H15.5649L15.3515 22.6155C15.2803 23.077 15.138 23.6155 15.0668 24.1539C14.4265 27.2308 13.5015 31.5385 13.7861 34.6155L13.8572 35.2308L13.288 35.3847C12.5053 35.6924 11.5092 35.8462 10.5842 35.8462Z" fill="#F4A23F"/>
  <path d="M13.0033 21.6922L12.7899 22.6152C12.7187 23.0768 12.5764 23.6152 12.5053 24.1537C11.8649 27.2306 10.9399 31.5383 11.2245 34.6152L11.2957 35.2306L10.7264 35.4614C10.2283 35.6152 9.80142 35.6922 9.30334 35.7691C9.73027 35.846 10.2283 35.846 10.6553 35.846C11.5803 35.846 12.5053 35.6922 13.4303 35.4614L13.9995 35.3075L13.9283 34.6152C13.6437 31.5383 14.4976 27.2306 15.2091 24.0768C15.3514 23.5383 15.4226 22.9998 15.4937 22.5383L15.7072 21.6152L13.0033 21.6922Z" fill="#E28539"/>
  <path d="M21.8976 39.2305C19.9764 39.2305 18.9091 38.0766 18.9091 36.0766V25.2305H21.8976L21.9687 25.8459C22.2534 27.9228 24.1034 29.3074 26.0245 28.9997C27.5187 28.7689 28.6572 27.4612 28.9418 25.8459L29.013 25.2305H32.0014V36.0766C32.0014 38.0766 30.9341 39.2305 29.013 39.2305H21.8976Z" fill="#FBCF4C"/>
  <path d="M25.4553 29.0004C27.3809 29.0004 28.9418 27.3128 28.9418 25.2311C28.9418 23.1495 27.3809 21.4619 25.4553 21.4619C23.5297 21.4619 21.9688 23.1495 21.9688 25.2311C21.9688 27.3128 23.5297 29.0004 25.4553 29.0004Z" fill="#F4A23F"/>
  <path d="M25.4553 21.3848C25.0284 21.3848 24.6726 21.4617 24.2457 21.6155C26.0957 22.3078 27.0207 24.4617 26.3803 26.4617C26.0245 27.5386 25.2418 28.3848 24.2457 28.7694C24.6014 28.9232 25.0284 29.0002 25.4553 29.0002C27.3764 29.0002 28.9418 27.3078 28.9418 25.2309C28.9418 23.0771 27.3764 21.3848 25.4553 21.3848Z" fill="#E28539"/>
  <path d="M29.013 25.2305L28.9418 24.6152C28.6572 22.5382 26.8072 21.1536 24.886 21.4613C23.3918 21.6921 22.2534 22.9998 21.9687 24.6152L21.8976 25.2305H18.9091V18.0767L22.1822 11.6152L22.6091 5.92285H28.3014L28.7284 11.6152L32.0014 18.0767V25.2305H29.013Z" fill="#FBCF4C"/>
  <path d="M22.6091 5.92338L22.9649 0.769531H27.8745L28.3014 5.92338H22.6091Z" fill="#F4A23F"/>
  <path d="M29.6534 25.2305V36.0766C29.6534 38.0766 28.5149 39.2305 26.6649 39.2305H29.013C30.9342 39.2305 32.0015 38.0766 32.0015 36.0766V25.2305H29.6534Z" fill="#EDB248"/>
  <path d="M28.7284 11.6152L28.3014 5.92285H25.9534L26.3803 11.6152L29.6534 18.0767V25.2305H32.0014V18.0767L28.7284 11.6152Z" fill="#EDB248"/>
  <path d="M27.8745 0.769531H25.5264L25.9534 5.92338H28.3014L27.8745 0.769531Z" fill="#E28539"/>
  <path d="M14.1418 10.6149C13.7149 10.6149 13.288 10.7688 12.9322 10.9996C12.2918 9.46109 10.5841 8.76878 9.16104 9.46109C8.4495 9.76878 7.95142 10.3842 7.66681 11.1534C6.5995 10.6149 5.38988 11.1534 4.89181 12.3072C4.82065 12.4611 4.7495 12.6919 4.7495 12.8457C4.7495 12.9226 4.7495 12.9226 4.7495 12.9996V14.0765C4.60719 14.2303 4.46489 14.4611 4.46489 14.6919C4.32258 16.7688 4.32258 18.9226 4.46489 20.9996C4.60719 22.1534 4.82065 23.3072 5.10527 24.3842C5.81681 27.6919 6.81296 32.6149 6.24373 35.538C6.10142 36.3842 5.81681 37.1534 5.46104 37.9226C5.24758 38.2303 5.31873 38.6149 5.60335 38.9226C5.74565 39.0765 6.81296 39.9226 10.1572 39.9226H10.7976C14.1418 39.9226 15.2091 39.0765 15.3514 38.9226C15.636 38.6919 15.636 38.2303 15.4937 37.9226C15.138 37.1534 14.9245 36.3842 14.711 35.538C14.1418 32.6149 15.138 27.6919 15.8495 24.3842C16.1341 23.2303 16.3476 22.1534 16.4899 20.9996C16.6322 18.9226 16.6322 16.7688 16.4899 14.6919C16.4899 14.538 16.4187 14.4611 16.3476 14.3072C16.8457 12.9996 16.3476 11.538 15.138 10.9226C14.8533 10.6919 14.4976 10.6149 14.1418 10.6149ZM10.7976 38.3073H10.1572C9.08988 38.3842 8.02258 38.2303 7.02642 37.9226C7.23988 37.3842 7.38219 36.8457 7.5245 36.2303C8.52065 36.4611 9.58796 36.6149 10.5841 36.6149C11.5091 36.6149 12.5053 36.4611 13.4303 36.2303C13.5726 36.7688 13.7149 37.3073 13.9283 37.8457C12.9322 38.2303 11.8649 38.3073 10.7976 38.3073ZM14.4264 23.9996C13.7149 27.2303 12.861 31.538 13.1457 34.7688C11.3668 35.2303 9.51681 35.2303 7.73796 34.7688C8.02258 31.538 7.16873 27.2303 6.45719 23.9996C6.31488 23.4611 6.24373 22.9226 6.17258 22.4611H14.7822C14.6399 22.9226 14.5687 23.4611 14.4264 23.9996ZM15.0668 20.7688C15.0668 20.8457 15.0668 20.8457 15.0668 20.9226H5.95912C5.95912 20.8457 5.95912 20.8457 5.95912 20.7688C5.88796 19.0765 5.88796 17.3072 5.88796 15.6149H6.03027V17.8457C6.03027 18.9996 6.88412 19.9226 7.95142 19.9226C9.01873 19.9226 9.87258 18.9996 9.87258 17.8457V16.2303H10.4418C11.8649 16.2303 13.2168 16.0765 14.5687 15.6919L14.9957 15.6149C15.138 17.3072 15.138 19.0765 15.0668 20.7688ZM14.5687 14.1534C14.4264 14.2303 14.0707 14.2303 13.9283 14.3072C12.7899 14.538 11.6514 14.6919 10.513 14.6919C10.1572 14.6919 9.73027 14.6919 9.30335 14.6149C9.08988 14.6149 8.87642 14.6919 8.73412 14.8457C8.59181 14.9996 8.52065 15.2303 8.52065 15.3842V17.8457C8.52065 18.1534 8.30719 18.3842 8.02258 18.3842C7.73796 18.3842 7.5245 18.1534 7.5245 17.8457V14.9996C7.5245 14.6149 7.31104 14.3072 6.95527 14.2303L6.24373 14.0765V12.9996C6.31488 12.6919 6.5995 12.4611 6.88412 12.4611C7.16873 12.4611 7.45335 12.6919 7.5245 13.0765C7.59565 13.4611 7.88027 13.6919 8.23604 13.6919H8.37835C8.59181 13.6919 8.80527 13.6149 8.94758 13.3842C9.08988 13.1534 9.16104 12.9226 9.08988 12.6919C8.87642 11.9226 9.23219 10.9996 10.0149 10.7688C10.7264 10.538 11.5803 10.9226 11.7937 11.7688C11.8649 12.0765 11.8649 12.4611 11.7937 12.8457C11.6514 13.2303 11.8649 13.6919 12.2207 13.8457C12.2918 13.8457 12.363 13.9226 12.4341 13.9226H12.5764C12.9322 13.9226 13.288 13.6149 13.288 13.2303C13.3591 12.6919 13.7149 12.3072 14.213 12.3072C14.711 12.3072 15.138 12.7688 15.138 13.3072C15.138 13.6149 14.8533 13.9996 14.5687 14.1534Z" fill="#4A2328"/>
  <path d="M29.4399 11.4615L28.6572 1.53846H28.7283C29.1553 1.53846 29.4399 1.23077 29.4399 0.769231C29.4399 0.307692 29.1553 0 28.7283 0H22.1822C21.7553 0 21.4706 0.307692 21.4706 0.769231C21.4706 1.23077 21.7553 1.53846 22.1822 1.53846H22.2533L21.5418 11.4615L18.2687 17.6923C18.1976 17.7692 18.1976 17.9231 18.1976 18.0769V36.0769C18.1976 38.5385 19.6206 40 21.8976 40H28.9418C31.2899 40 32.6418 38.5385 32.6418 36.0769V18.0769C32.6418 17.9231 32.6418 17.8462 32.5707 17.6923L29.4399 11.4615ZM23.6764 1.53846H27.2341L27.5187 5.15385H23.3918L23.6764 1.53846ZM31.2899 36.0769C31.2899 37.6923 30.5072 38.4615 29.013 38.4615H21.9687C20.4033 38.4615 19.6918 37.6923 19.6918 36.0769V26H21.3283C21.6841 28.4615 23.8899 30.1538 26.1668 29.7692C27.9457 29.4615 29.3687 27.9231 29.6533 26H31.2899V36.0769ZM22.6803 25.2308C22.6803 23.5385 23.961 22.2308 25.4553 22.2308C26.9495 22.2308 28.2303 23.6154 28.2303 25.2308C28.2303 26.8462 26.9495 28.2308 25.4553 28.2308C23.8899 28.2308 22.6803 26.9231 22.6803 25.2308ZM31.2899 24.4615H29.6533C29.2976 22 27.0918 20.3077 24.8149 20.6923C23.036 21 21.613 22.5385 21.3283 24.4615H19.6918V18.3077L22.8937 12.0769C22.9649 12 22.9649 11.8462 22.9649 11.7692L23.3206 6.76923H27.7322L28.088 11.7692C28.088 11.8462 28.1591 12 28.1591 12.0769L31.361 18.3077L31.2899 24.4615Z" fill="#4A2328"/>
</svg>
