<svg width="50" height="70" viewBox="0 0 87 115" fill="none"
  xmlns="http://www.w3.org/2000/svg">
  <path d="M29.9062 28.75L25.8281 34.1406L17.4306 23.0404C17.0797 23.2521 16.6982 23.3609 16.3125 23.3594C15.5914 23.3594 14.8999 22.9807 14.3901 22.3068C13.8802 21.6328 13.5938 20.7187 13.5938 19.7656C13.5938 18.8125 13.8802 17.8984 14.3901 17.2245C14.8999 16.5505 15.5914 16.1719 16.3125 16.1719C16.3125 15.2188 16.5989 14.3047 17.1088 13.6307C17.6187 12.9568 18.3102 12.5781 19.0312 12.5781C19.7523 12.5781 20.4438 12.9568 20.9537 13.6307C21.4636 14.3047 21.75 15.2188 21.75 16.1719C21.7512 16.6818 21.6689 17.186 21.5087 17.6498L29.9062 28.75Z" fill="#F0DE9C"/>
  <path d="M43.6206 47.5385C42.8965 49.2225 41.8881 50.6628 40.6739 51.7473C39.4598 52.8318 38.0726 53.5311 36.6204 53.7909C35.1683 54.0506 33.6904 53.8638 32.3018 53.2449C30.9132 52.626 29.6515 51.5917 28.6148 50.2227C24.8987 45.3104 21.055 32.2629 24.7695 27.3507C27.4135 23.858 33.1721 25.4212 37.6139 28.3839C39.4151 29.5855 41.0004 31.0162 42.0727 32.4335C43.5454 34.3807 44.4943 36.9125 44.7739 39.6409C45.0535 42.3693 44.6484 45.1437 43.6206 47.5385Z" fill="#F0C033"/>
  <path d="M43.6206 47.5385C42.2577 46.8312 41.0166 45.7679 39.9715 44.4122C38.9265 43.0565 38.0989 41.4363 37.5382 39.6483C36.9775 37.8604 36.6952 35.9414 36.7082 34.0059C36.7212 32.0705 37.0293 30.1584 37.6139 28.3839C39.4151 29.5855 41.0004 31.0163 42.0727 32.4336C43.5454 34.3807 44.4943 36.9126 44.7739 39.641C45.0535 42.3694 44.6484 45.1437 43.6206 47.5385Z" fill="#EA8804"/>
  <path d="M66.6094 8.98438C66.61 8.44783 66.5197 7.9179 66.3452 7.43348C66.1707 6.94907 65.9163 6.52246 65.6007 6.18496C65.2852 5.84747 64.9164 5.60766 64.5216 5.48314C64.1268 5.35861 63.7159 5.35253 63.319 5.46533C62.9222 5.57814 62.5495 5.80697 62.2283 6.13504C61.9071 6.4631 61.6455 6.88208 61.4628 7.3612C61.2801 7.84033 61.1809 8.36746 61.1725 8.90389C61.164 9.44033 61.2465 9.97246 61.414 10.4612L53.0156 21.5625L57.0937 26.9531L65.4921 15.8519C65.8617 16.0723 66.264 16.1807 66.6694 16.169C67.0748 16.1573 67.4731 16.0259 67.8351 15.7843C68.1971 15.5428 68.5136 15.1972 68.7614 14.7729C69.0092 14.3487 69.1821 13.8565 69.2674 13.3325C69.3526 12.8085 69.3481 12.2658 69.2541 11.7444C69.1601 11.223 68.9791 10.736 68.7242 10.3191C68.4693 9.90217 68.1471 9.56591 67.7812 9.33497C67.4153 9.10402 67.0149 8.98423 66.6094 8.98438Z" fill="#F0DE9C"/>
  <path d="M59.5899 27.7865C59.1413 33.3478 56.6978 39.875 54.307 43.0352C52.5224 45.3942 50.1019 46.7195 47.5781 46.7194C45.0543 46.7194 42.6338 45.3942 40.8492 43.0352C39.0646 40.6762 38.062 37.4768 38.062 34.1406C38.062 30.8045 39.0646 27.6051 40.8492 25.2461C44.5654 20.3339 54.4362 15.2532 58.1524 20.1632C59.4778 21.9152 59.8414 24.7026 59.5899 27.7865Z" fill="#F0C033"/>
  <path d="M59.5899 27.7864C59.1413 33.3477 56.6978 39.8749 54.307 43.0351C53.5846 43.9925 52.7497 44.7889 51.8347 45.3935C51.138 44.2939 50.6472 42.9926 50.4022 41.5954C50.0303 39.6251 50.1827 37.5457 50.8337 35.7064C51.4848 33.8671 52.5948 32.3799 53.9774 31.4947L59.5899 27.7864Z" fill="#EA8804"/>
  <path d="M78.8438 39.5312C78.8439 40.4752 78.7034 41.4099 78.4302 42.2821C78.157 43.1542 77.7565 43.9467 77.2516 44.6141C76.7466 45.2816 76.1471 45.811 75.4873 46.1722C74.8275 46.5333 74.1204 46.719 73.4062 46.7188H57.0173C51.2807 46.7188 49.4541 36.4945 54.5857 33.1029L74.7656 19.7656C74.7676 21.8897 74.4521 23.9934 73.8371 25.9558C73.2221 27.9181 72.3197 29.7005 71.182 31.2005C70.8773 31.6043 70.5562 31.986 70.2202 32.3438H73.4062C73.6141 32.3435 73.8217 32.3593 74.0281 32.3909C75.3538 32.5927 76.577 33.4318 77.465 34.7485C78.353 36.0651 78.8437 37.7674 78.8438 39.5312Z" fill="#F0C033"/>
  <path d="M74.0281 32.3909C72.627 34.6254 70.8701 36.4238 68.8829 37.6581C66.8956 38.8923 64.7269 39.5319 62.5312 39.5313H61.1719V35.9375H62.5312C65.3302 35.941 68.045 34.6721 70.2202 32.3438H73.4062C73.6141 32.3435 73.8217 32.3593 74.0281 32.3909Z" fill="#EA8804"/>
  <path d="M17.6719 41.3281H82.9219V48.5156H17.6719V41.3281Z" fill="#C6D6E2"/>
  <path d="M70.6875 109.609H29.9062L23.1094 48.5156H77.4844L70.6875 109.609Z" fill="#E64042"/>
  <path d="M35.3438 75.4688C35.344 76.0693 35.2303 76.6603 35.0131 77.1878C34.7959 77.7153 34.4821 78.1623 34.1004 78.4881C33.7187 78.8139 33.2813 79.0079 32.8283 79.0526C32.3752 79.0972 31.9209 78.991 31.5069 78.7436L28.0677 83.2897L23.1094 89.8438L19.0312 84.4531L27.4288 73.353C27.2619 72.8643 27.1799 72.3326 27.1887 71.7966C27.1975 71.2606 27.2969 70.7341 27.4797 70.2555C27.6624 69.7769 27.9239 69.3584 28.2448 69.0307C28.5658 68.703 28.9382 68.4744 29.3347 68.3617C29.7312 68.2489 30.1417 68.2548 30.5363 68.379C30.9308 68.5032 31.2993 68.7425 31.6148 69.0793C31.9303 69.4162 32.1847 69.8421 32.3595 70.3259C32.5343 70.8096 32.625 71.3389 32.625 71.875C32.9821 71.8749 33.3356 71.9677 33.6655 72.1483C33.9954 72.3289 34.2952 72.5936 34.5477 72.9273C34.8001 73.261 35.0004 73.6573 35.137 74.0933C35.2736 74.5294 35.3438 74.9968 35.3438 75.4688Z" fill="#F0DE9C"/>
  <path d="M28.0677 83.2897L23.1094 89.8438L22.3413 88.8285C23.7302 86.1908 25.7455 84.2414 28.0677 83.2897Z" fill="#F0C033"/>
  <path d="M21.6735 103.797C21.2663 104.552 20.8146 105.264 20.3227 105.926C18.538 108.285 16.1176 109.61 13.5937 109.61C11.0699 109.61 8.64945 108.285 6.86483 105.926C5.08021 103.567 4.07763 100.367 4.07763 97.0313C4.07763 93.6952 5.08022 90.4957 6.86485 88.1367C10.581 83.2245 20.4518 78.1439 24.168 83.0538C24.6077 83.646 24.9533 84.3486 25.1841 85.1202C26.7236 90.1425 24.4331 98.7428 21.6735 103.797Z" fill="#F0C033"/>
  <path d="M55.7344 97.0313C56.2721 97.0313 56.7977 96.8205 57.2448 96.4256C57.6919 96.0307 58.0404 95.4694 58.2462 94.8128C58.452 94.1561 58.5058 93.4335 58.4009 92.7364C58.296 92.0393 58.0371 91.3989 57.6568 90.8963C57.2766 90.3937 56.7922 90.0515 56.2648 89.9128C55.7374 89.7741 55.1907 89.8453 54.694 90.1173C54.1972 90.3893 53.7726 90.8499 53.4738 91.4409C53.1751 92.0319 53.0156 92.7267 53.0156 93.4375H42.1406V100.625H53.0156C53.0156 101.336 53.1751 102.031 53.4738 102.622C53.7726 103.213 54.1972 103.673 54.694 103.945C55.1907 104.217 55.7374 104.288 56.2648 104.15C56.7922 104.011 57.2766 103.669 57.6568 103.166C58.0371 102.664 58.296 102.023 58.4009 101.326C58.5058 100.629 58.452 99.9064 58.2462 99.2497C58.0404 98.5931 57.6919 98.0318 57.2448 97.6369C56.7977 97.242 56.2721 97.0313 55.7344 97.0313Z" fill="#F0DE9C"/>
  <path d="M21.6735 103.797C20.4055 100.661 20.0626 97.0159 20.7111 93.5658C21.3596 90.1157 22.9535 87.1063 25.1841 85.1202C26.7236 90.1425 24.4331 98.7428 21.6735 103.797Z" fill="#EA8804"/>
  <path d="M46.2188 97.0312C46.2188 103.978 36.521 109.609 31.2656 109.609C28.7419 109.609 26.3216 108.284 24.5371 105.925C22.7525 103.566 21.75 100.367 21.75 97.0312C21.75 93.6953 22.7525 90.496 24.5371 88.1372C26.3216 85.7783 28.7419 84.4531 31.2656 84.4531C36.521 84.4531 46.2188 90.0845 46.2188 97.0312Z" fill="#F0C033"/>
</svg>
