<svg width="72" height="70" viewBox="0 0 88 84" fill="none"
  xmlns="http://www.w3.org/2000/svg">
  <g clip-path="url(#clip0_14_1689)">
    <path d="M57.2524 36.1696L63.8847 20.9596C64.2526 20.1161 64.118 19.1652 63.5305 18.4566L52.9385 5.68396C52.3386 4.96059 51.3581 4.60011 50.371 4.73979L6.49232 10.9489C4.97667 11.1634 3.90843 12.4715 4.1064 13.8706L8.06615 41.8533C8.26413 43.2523 9.65338 44.2127 11.169 43.9982L55.0475 37.7891C56.0348 37.6495 56.8768 37.031 57.2524 36.1696ZM48.7033 21.8314C48.4143 19.7891 49.9735 17.8797 52.1861 17.5666C54.3986 17.2535 56.4264 18.6553 56.7154 20.6976C57.0044 22.74 55.4451 24.6493 53.2326 24.9624C51.0202 25.2753 48.9923 23.8736 48.7033 21.8314Z" fill="#409FFF"/>
    <path d="M53.3981 21.167C53.249 20.1136 54.0533 19.1289 55.1944 18.9674L73.5609 16.3684C74.7022 16.2069 75.748 16.93 75.897 17.9833C76.0461 19.0368 75.2418 20.0215 74.1007 20.1829L55.7343 22.7819C54.5931 22.9434 53.5471 22.2205 53.3981 21.167Z" fill="#2C3940"/>
    <path d="M7.90373 40.7056L8.06612 41.8532C8.2641 43.2523 9.65336 44.2127 11.169 43.9983L55.0475 37.7892C56.0348 37.6495 56.8767 37.0309 57.2523 36.1695L58.3896 33.5612L7.90369 40.7053L7.90373 40.7056Z" fill="#3A8FE6"/>
    <path d="M76.1078 41.3313L69.2842 26.4716C68.9057 25.6475 68.0823 25.078 67.1164 24.9731L49.7046 23.0794C48.7185 22.9721 47.7344 23.365 47.1276 24.1081L20.1534 57.1389C19.2216 58.2798 19.4486 59.884 20.6603 60.7216L44.8958 77.4751C46.1075 78.3127 47.8454 78.0668 48.7771 76.9259L75.7512 43.8952C76.3581 43.1518 76.4943 42.1729 76.1078 41.3313ZM58.9765 37.0172C57.2076 35.7944 56.8764 33.4533 58.2365 31.7877C59.5967 30.1221 62.1329 29.7632 63.9018 30.986C65.6707 32.2088 66.002 34.55 64.6418 36.2155C63.2818 37.8809 60.7454 38.2398 58.9765 37.0172Z" fill="#EF5350"/>
    <path d="M61.8626 33.4832C60.9502 32.8524 60.7793 31.6448 61.4809 30.7857L72.7716 16.9599C73.4732 16.1008 74.7814 15.9156 75.6938 16.5464C76.6062 17.1771 76.7771 18.3847 76.0755 19.2438L64.7849 33.0696C64.0834 33.9285 62.775 34.1136 61.8626 33.4832Z" fill="#36474F"/>
    <path d="M76.1078 41.3312L74.8533 38.5992L43.7519 76.6839L44.8961 77.4748C46.1078 78.3125 47.8456 78.0666 48.7773 76.9256L75.7514 43.8949C76.358 43.1518 76.4943 42.1728 76.1078 41.3312Z" fill="#D44A47"/>
    <path d="M38.8734 60.826C40.0927 59.3264 41.7316 58.6293 43.6261 59.9331L43.8554 60.0908C45.8344 61.4527 45.6098 63.1405 44.4183 64.6061C43.0049 66.3444 41.1765 66.5567 40.0542 65.7845C39.4992 65.4026 39.5639 65.0219 39.9428 64.5561C40.4509 63.9313 40.8087 64.0004 41.1466 64.2327C41.7379 64.6397 42.4795 64.3524 43.0151 63.6935C43.6249 62.9436 43.5719 62.1987 42.6548 61.5676L42.4256 61.4099C41.5085 60.7788 40.7047 60.9343 40.1044 61.6727L38.7371 63.3542C38.3583 63.82 38.0153 63.779 37.6413 63.5216C37.5447 63.4552 37.4454 63.3691 37.3366 63.2942L34.4034 60.8152C34.1202 60.5847 34.001 60.3611 34.1396 60.1907L36.9848 56.6915C37.2249 56.396 37.695 56.4891 38.0329 56.7217C38.3827 56.9625 38.6004 57.3429 38.3604 57.6383L36.2819 60.1946L38.1622 61.7009L38.8734 60.826Z" fill="white"/>
    <path d="M44.6203 59.0578L41.2536 56.7413C39.2384 55.3545 39.4326 53.681 40.6519 52.1813C41.8712 50.6817 43.5706 50.0263 45.5857 51.4131L48.9524 53.7297C50.9674 55.1163 50.7641 56.8012 49.5449 58.3008C48.3257 59.8003 46.6353 60.4444 44.6203 59.0578ZM44.3851 52.8898C43.4319 52.2339 42.628 52.3895 42.0275 53.128C41.4178 53.8778 41.5014 54.6083 42.4546 55.2644L45.8213 57.5809C46.7745 58.2368 47.56 58.1041 48.1696 57.3543C48.7701 56.6157 48.705 55.8624 47.7518 55.2065L44.3851 52.8898Z" fill="white"/>
    <path d="M48.4475 48.9347L46.6979 47.7308C45.5635 46.9503 45.714 45.9554 46.4623 45.0351C47.2013 44.1263 48.1963 43.7125 49.3307 44.4929L51.0802 45.6968C52.2146 46.4774 52.0644 47.4725 51.3252 48.3814C50.5769 49.3017 49.5819 49.7151 48.4475 48.9347ZM48.5454 45.4586C48.0988 45.1515 47.6904 45.2602 47.3672 45.658C47.044 46.0558 47.0551 46.4353 47.5015 46.7425L49.2511 47.9464C49.6977 48.2535 50.0966 48.1563 50.4201 47.7586C50.7434 47.3609 50.7414 46.9699 50.295 46.6627L48.5454 45.4586ZM50.7069 39.93C50.7795 39.9798 50.8426 40.0411 50.8872 40.1249L56.3222 50.2431C56.4357 50.4274 56.3845 50.6757 56.2275 50.8688C55.9689 51.1869 55.5156 51.2118 55.2625 51.0376C55.19 50.9877 55.1361 50.9151 55.0944 50.851L49.623 40.708C49.5188 40.5124 49.5635 40.2952 49.7022 40.1247C49.9146 39.8633 50.381 39.706 50.7069 39.93ZM56.6076 46.5595L54.8579 45.3556C53.7235 44.575 53.8738 43.58 54.6221 42.6599C55.3611 41.751 56.3562 41.3373 57.4906 42.1176L59.2403 43.3215C60.3865 44.1104 60.224 45.0971 59.485 46.006C58.7369 46.926 57.754 47.3483 56.6076 46.5595ZM56.7056 43.0832C56.259 42.7761 55.8508 42.8847 55.5274 43.2825C55.2041 43.6801 55.2153 44.0598 55.6618 44.3671L57.4115 45.571C57.858 45.8782 58.2568 45.7809 58.5803 45.3833C58.9038 44.9856 58.9017 44.5946 58.4554 44.2872L56.7056 43.0832Z" fill="white"/>
    <path d="M19.0065 28.0569L18.966 27.793C18.8092 26.7652 18.0726 26.5783 17.1093 26.7237C16.6729 26.7894 16.4694 26.465 16.4144 26.104C16.3614 25.7568 16.4568 25.3733 16.8932 25.3073C17.6455 25.1938 18.252 24.9316 18.0698 23.7373C17.9299 22.8208 17.3716 22.5924 16.559 22.7152C15.5809 22.8629 15.2769 23.2925 15.3619 23.8477C15.4255 24.2645 15.2572 24.5741 14.5349 24.6828C13.6621 24.8147 13.4969 24.6408 13.4079 24.0576C13.2576 23.0715 13.7915 21.5274 16.3346 21.1435C18.1553 20.8687 19.6072 21.303 19.8892 23.1498C20.0566 24.2471 19.7558 25.2016 19.0674 25.6322C20.0039 25.8179 20.7463 26.3451 20.9223 27.4979L20.9627 27.7617C21.3039 29.9975 19.808 31.09 17.8217 31.39C15.3538 31.7624 14.1466 30.5098 13.975 29.385C13.8902 28.8294 14.1227 28.6379 14.7998 28.5358C15.5973 28.4152 15.8376 28.5781 15.9054 29.0225C16.0008 29.6477 16.6621 29.9456 17.625 29.8003C18.7539 29.6295 19.1675 29.1123 19.0065 28.0569Z" fill="white"/>
    <path d="M22.4076 27.4441L21.8164 23.5696C21.4625 21.2504 22.8661 20.1576 24.8523 19.8577C26.8386 19.5577 28.5202 20.1848 28.8739 22.504L29.4651 26.3785C29.8191 28.6977 28.4005 29.7926 26.4143 30.0926C24.4282 30.3925 22.7617 29.7634 22.4076 27.4441ZM26.9177 22.7996C26.7503 21.7026 26.0721 21.2933 25.0939 21.4411C24.1008 21.5909 23.6051 22.1773 23.7726 23.2745L24.3637 27.1489C24.5311 28.246 25.1794 28.6594 26.1725 28.51C27.1506 28.3622 27.6761 27.7714 27.5087 26.6742L26.9177 22.7996Z" fill="white"/>
    <path d="M32.7465 22.5588L32.4392 20.545C32.2399 19.2396 33.0988 18.6129 34.3177 18.4289C35.5215 18.2472 36.5287 18.5921 36.7279 19.8975L37.0352 21.9113C37.2345 23.2164 36.3756 23.8434 35.1716 24.0253C33.9529 24.2093 32.9457 23.864 32.7465 22.5588ZM35.4488 20.0906C35.3704 19.5771 35.0033 19.391 34.4766 19.4703C33.9499 19.5497 33.6701 19.8336 33.7485 20.3473L34.0557 22.361C34.1341 22.8749 34.4862 23.0631 35.0129 22.9837C35.5395 22.9044 35.8345 22.6184 35.756 22.1044L35.4488 20.0906ZM41.1449 17.4691C41.1576 17.5525 41.1551 17.6379 41.1229 17.7282L37.2443 28.6281C37.1839 28.836 36.96 28.9835 36.7042 29.0224C36.2829 29.086 35.9482 28.8095 35.9036 28.5181C35.8908 28.4347 35.9084 28.3469 35.9276 28.273L39.7998 17.3312C39.8755 17.1211 40.0714 16.9918 40.2971 16.958C40.6431 16.9055 41.0876 17.094 41.1449 17.4691ZM40.2347 26.1309L39.9273 24.1172C39.7279 22.8118 40.587 22.185 41.8057 22.0008C43.0096 21.819 44.0169 22.1642 44.2159 23.4697L44.5233 25.4834C44.7248 26.8026 43.8636 27.4156 42.6598 27.5974C41.4408 27.7813 40.4358 27.4501 40.2347 26.1309ZM42.9368 23.6629C42.8586 23.149 42.4913 22.963 41.9647 23.0423C41.4381 23.1219 41.1582 23.4056 41.2365 23.9195L41.5439 25.9333C41.6223 26.4471 41.9744 26.6353 42.5009 26.556C43.0275 26.4764 43.3226 26.1903 43.2442 25.6764L42.9368 23.6629Z" fill="white"/>
  </g>
  <defs>
    <clipPath id="clip0_14_1689">
      <rect width="78" height="72" fill="white" transform="translate(0.340698 11.8195) rotate(-8.05428)"/>
    </clipPath>
  </defs>
</svg>
