<svg xmlns="http://www.w3.org/2000/svg" height="36" width="36" fill="currentColor" id="Capa_1" data-name="Capa 1" viewBox="169.57 37.47 456.57 411.23">
  <path class="cls-1" d="M602.19,147.09c-.55,0-1.12-.08-1.7-.14h-91c-12-6.86-17.72-20.54-11-33.13a51.71,51.71,0,0,0,5.74-17.28c.78-6-2.38-11.48-9.55-13.85-7.54-2.5-15.32-2-20.67,3.43-4.07,4.13-6.81,9.41-9.25,14.49s-3.58,10.29-5.33,15.52c-5.83-2.41-8-6.9-6.58-13.39,2.2-10.13,8.76-18,17.78-24.47,7.07-5.08,11.9-11.18,12.9-19.28,1.89-15.42-11.38-24.9-28.67-20.4-25.74,6.71-50.24,32.81-53.18,55.86-2.28,17.87,1.69,34.67,9.79,51l.82,1.68q-13.74,0-27.49,0c-13.27,0-24.21,10.4-24.47,22.86-.3,13.91,9.74,24.54,23.75,25.16l5.45.26c.09,9.86.24,19.68.15,29.5-19.36-17.68-59.48-49.45-89.47-40.4-16.14,4.85-26.84,20.31-31.83,46.2-.17,1.22-4.25,30.34,4.26,54.14,2.42,6.8,1.28,13.07-3.14,17.23-5.24,4.91-13.76,5.69-21.73,1.94-2.74-1.27-27.17-12.13-42-1.94-7.5,5.17-11,14.36-10.43,27.33.55,12.37,4.87,22.84,12.34,31.07q-9.9-2.35-19.71-5.23c-7.42-1.57-10-2.75-18.4-4.52,4.41,5.68,10.82,16,14.8,22.06,20.26,31,49.69,51.12,84.24,63.2,44.31,15.5,89.77,16,135.23,5.94,50-11.12,89.55-39.06,120.52-79.29,36.49-47.42,56.91-101.87,68.55-160,1.46-7.32,1.28-7.35,8.65-7.5,13.79-.26,24.5-10.69,24.58-23.94C626.2,158.28,615.64,147.65,602.19,147.09Zm-19.58,15.16c-2.93,1.42-5.84,2.88-8.71,4.43q-3-2.18-6-4.43Zm-26.47,0q5.39,4.32,11,8.4c-4.84,2.84-9.6,5.82-14.24,9H525.61q-7.58-3.94-15.22-7.75,10.44-5.07,21.11-9.67Zm-42.52,0q-5.75,2.73-11.45,5.54-5.79-2.82-11.62-5.54Zm-4.4,17.42H495.35l6.9-3.49C504.58,177.32,506.89,178.5,509.22,179.67Zm-15.41-7.52c-5.05,2.61-10.14,5.12-15.15,7.83h-34l-14.2-7.41c8.84-3.72,17.77-7.22,26.88-10.32h15.16C479.69,165.42,486.76,168.78,493.81,172.15ZM445.05,51.06a47.22,47.22,0,0,1,16.14-5.68c9.87-1.44,16.24,6.34,11.71,14-2,3.34-5.25,6.32-8.58,8.85-9.89,7.52-16.79,16.53-19.85,27.58-2,7.22-2.43,14.49,1.9,21.25,3,4.7,7.57,7.89,14.2,7.72s8.82-4.64,10.66-8.92c2.17-5.06,3.52-10.38,5.55-15.49a28,28,0,0,1,4.57-8.13,8.41,8.41,0,0,1,11-1.68c1.79,1.21,1.94,5.07,1.53,7.58s-2.31,5-3.77,7.37c-8.53,13.91-6.87,27,4.25,39.33.52.58,1.13,1.23,1.68,1.83H427a4.58,4.58,0,0,1-.35-.45c-3.92-8.09-8.36-16.12-10.82-24.56C407.4,92.81,418.53,66.26,445.05,51.06Zm-9.23,111.19q-7,2.82-14,5.82l-11.16-5.82ZM428.45,180h-14.8c2.64-1.2,5.27-2.42,7.92-3.59Zm-45.71-.15c-5.63-.45-7.41-2.62-7.41-8.69s1.82-8.5,7.37-8.74c3.89-.17,7.78-.19,11.68-.18L413.12,172q-8.69,3.91-17.32,8h-4.94C388.15,180,385.43,180,382.74,179.83Zm18.91,137.78q-3.67-2.66-7.29-5.45c-3-2.31-3.59-4.32-1.87-7.57a52.19,52.19,0,0,0,2.58-6.38C397.42,304.62,399.54,311.11,401.65,317.61ZM205.33,328.93c-.41-9.17,1.62-15.36,6-18.39,8.37-5.79,24.74-.72,32.22,2.76,11.66,5.45,24.49,4,32.69-3.73,7.43-7,9.58-17.54,5.77-28.24-7.63-21.33-3.8-48.88-3.8-48.91C282.4,210.81,290.74,198,303,194.29c28.81-8.66,72.55,30.86,86.34,44.27a234.79,234.79,0,0,1-5.64,44.54,167.9,167.9,0,0,1-5.47,16.28c-15.46,34.78-41.18,57.43-78.91,64.94-12,2.39-24.45,2.87-36.69,4.22a280.81,280.81,0,0,1-28.82-3.07,54.94,54.94,0,0,1-10.55-4.91C212,353.53,206,342.89,205.33,328.93Zm18.81,58.64c-.81-3-1.69-6-2.67-9l17.33,1.92Q231.54,384.19,224.14,387.57Zm20.92-.05c4.93,9.43,11,18.31,14.37,28.47a166.52,166.52,0,0,1-32.58-19.74C233,393.5,239.07,390.62,245.06,387.52Zm-33.49-10c.93,2.51,1.73,5,2.48,7.61q-4.05-3.93-7.87-8.21ZM266.07,408c-3.85-9-9.23-17.21-13.67-25.95l17,1.88Q267.78,395.37,266.07,408ZM485,383c-35.39,32-77.43,47.16-124.65,49.79-25.75,1.43-51-.47-75.92-7.32-3.23-.89-5.44-1.86-4.75-6.09,1.85-11.34,3.21-22.77,5.06-34.12.23-1.41,2.14-3.51,3.46-3.65,42.65-4.64,75-25.37,97.23-61.95a13.87,13.87,0,0,1,.95-1.07c33.51,26.37,71,43.51,115.32,48C495.49,372.7,490.43,378.05,485,383Zm-75.24-66.34c-1.61-5-3.25-10-5-15a272.66,272.66,0,0,0,25.3,15.18Q419.9,316.84,409.75,316.63Zm28.16,8.16a176.4,176.4,0,0,0,6.2,17.07,212.61,212.61,0,0,1-32-17.09s0-.09,0-.14C420.74,324.8,429.32,324.92,437.91,324.79Zm14.23,15.66a145.83,145.83,0,0,1-5.91-15.78q10.88,4.77,22.21,8.49C463,335.59,457.4,337.66,452.14,340.45Zm27.17-3.89a95,95,0,0,0,3.35,17.17A185.54,185.54,0,0,1,457,346.82C464.19,343,472.17,340.54,479.31,336.56Zm8.16,2a244.81,244.81,0,0,0,24.81,4.62l-14.47,5.51a43.49,43.49,0,0,0-7.18,3.26A88.92,88.92,0,0,1,487.47,338.55Zm23.59,16.39a7.47,7.47,0,0,1-5.33,1.75c-2-.13-4-.33-6-.52,2.35-.87,4.8-1.53,6.66-2.23l8.08-3.09A49.82,49.82,0,0,1,511.06,354.94Zm59.75-124c-9.34,34.84-22.82,68-41.7,98.8-2.15,3.52-4.37,4.78-8.52,4.4-39.3-3.67-74.78-17.62-107.85-38.78-9.64-6.17-13.74-11.78-11.71-24.8,3.43-22.1,2.7-44.86,3.69-67.34.11-2.34,0-4.69,0-7.56H579.21C576.35,207.7,573.9,219.39,570.81,230.9Zm-4.24-51.22c2.4-1.47,4.8-2.92,7.24-4.3,2.09,1.45,4.18,2.88,6.29,4.3ZM610,175.8c-.42,1.79-4.31,3.71-6.74,3.9a92.74,92.74,0,0,1-9.29.17c-4.36-2.71-8.58-5.61-12.83-8.48a213.48,213.48,0,0,1,20-9.11h.09C610.51,161.85,612.27,166.37,610,175.8Z"/>
  <path class="cls-1" d="M557.68,218.84c5.87,0,5.88-9.11,0-9.11S551.81,218.84,557.68,218.84Z"/>
  <path class="cls-1" d="M532,305a348.53,348.53,0,0,0,21.83-55.34c1.68-5.64-7.11-8-8.79-2.43a333.8,333.8,0,0,1-20.91,53.16C521.52,305.64,529.38,310.27,532,305Z"/>
  <path class="cls-1" d="M387.68,342.07c6.09,0,6.1-9.46,0-9.46S381.58,342.07,387.68,342.07Z"/>
  <path class="cls-1" d="M371.58,349.77c-13.78,19.09-38.32,30-60.68,34.81-5.73,1.22-3.3,10,2.43,8.79,24.93-5.33,50.88-17.88,66.13-39C382.89,349.61,375,345.06,371.58,349.77Z"/>
</svg>
