<svg width="35" height="36" viewBox="0 0 35 36" fill="none" xmlns="http://www.w3.org/2000/svg">
<g clip-path="url(#clip0_133_311)">
<path d="M15.6782 32.2475C12.2616 32.2475 9.4807 29.3872 9.4807 25.873V4.52832L2.43626 6.18712C0.695115 6.65812 -0.348881 8.50449 0.111705 10.3119L6.15166 33.5073C6.5527 35.0073 7.89281 36.0002 9.33064 36.0002C9.60032 36.0002 9.87453 35.9656 10.1458 35.8922L24.8445 32.2475H15.6782Z" fill="#B0BEC5"/>
<path d="M34.9996 4.12475V25.8728C34.9996 28.1526 33.2058 29.9976 30.9894 29.9976H15.6782C14.1763 29.9976 12.864 29.1427 12.1785 27.8826C11.8576 27.2976 11.668 26.6078 11.668 25.8728V4.12475C11.668 1.84473 13.4618 0 15.6782 0H30.9894C33.2058 0 34.9996 1.84473 34.9996 4.12475Z" fill="#ECEFF1"/>
<path d="M21.8757 10.4986C21.8757 12.1555 20.57 13.4984 18.9592 13.4984C17.3486 13.4984 16.0427 12.1555 16.0427 10.4986C16.0427 8.84199 17.3486 7.49902 18.9592 7.49902C20.57 7.49902 21.8757 8.84199 21.8757 10.4986Z" fill="#FFC107"/>
<path d="M34.9996 17.9083V25.8727C34.9996 28.1525 33.2059 29.9975 30.9895 29.9975H15.6782C14.1763 29.9975 12.864 29.1425 12.1786 27.8825L26.6295 13.0187C27.6209 11.999 29.2542 11.999 30.2459 13.0187L34.9996 17.9083Z" fill="#388E3C"/>
<path d="M30.7123 29.998H15.6782C14.1763 29.998 12.864 29.1431 12.1785 27.8831C11.8576 27.2981 11.668 26.6082 11.668 25.8733V22.4085L15.6929 18.2689C16.6843 17.2489 18.3176 17.2489 19.3092 18.2689L30.7123 29.998Z" fill="#4CAF50"/>
</g>
<defs>
<clipPath id="clip0_133_311">
<rect width="35" height="36" fill="white"/>
</clipPath>
</defs>
</svg>
